<?xml version="1.0" encoding="utf-8"?>
<!-- Generator: Adobe Illustrator 27.0.0, SVG Export Plug-In . SVG Version: 6.00 Build 0)  -->
<svg version="1.1" id="Layer_1" xmlns="http://www.w3.org/2000/svg" xmlns:xlink="http://www.w3.org/1999/xlink" x="0px" y="0px"
	 viewBox="0 0 2189 2562.7" style="enable-background:new 0 0 2189 2562.7;" xml:space="preserve">
<style type="text/css">
	.st0{fill:#0D1117;}
	.st1{fill:#FFFFFF;}
</style>
<rect x="-47.6" y="-39.6" class="st0" width="2284.3" height="2641.9"/>
<g>
	<path class="st1" d="M43.3,2464.1h13.6v-250.5l52.8-6.4l1.2,3.2v165.3h174.9c17.3,0,33.5,3.6,48.4,10.8c14.9,7.2,27,17.2,36.2,30
		c9.2,12.8,13.8,27.6,13.8,44.4c0,7.5,0.5,15.3,1.4,23.6c0.9,8.3,1.9,15.5,3,21.6l-6,5.6H22.1l-2-3.6L43.3,2464.1z M330.2,2460.9
		c0-10.4-4.2-19.3-12.6-26.6c-8.4-7.3-19-11-31.8-11H110.9v40.8h182.9c6.9,0,13.7,0.3,20.4,0.8c6.7,0.5,12,0.9,16,1.2
		C330.2,2464.2,330.2,2462.5,330.2,2460.9z"/>
	<path class="st1" d="M432.7,2511.7v-298.1l52.8-6.4l1.2,3.2v253.7h34.4c3.2,0,5.3,2.1,6.4,6.4c1.1,4.3,1.6,10,1.6,17.2
		c0,6.7-0.5,12.3-1.6,17c-1.1,4.7-3.2,7-6.4,7H432.7z"/>
	<path class="st1" d="M910,2511.7H520.7c-2.9-0.3-4.9-2.7-6-7.2c-1.1-4.5-1.6-10.3-1.6-17.2c0-6.9,0.6-12.5,1.8-16.8
		c1.2-4.3,3.3-6.4,6.2-6.4h34.4v-250.5l52.8-6.4l1.2,3.2v165.3h174.9c17.3,0,33.5,3.6,48.4,10.8c14.9,7.2,27,17.2,36.2,30
		c9.2,12.8,13.8,27.6,13.8,44.4c0,1.1,0,2.1,0,3.2H910c3.2,0,5.3,2.1,6.4,6.4c1.1,4.3,1.6,10,1.6,17.2c0,6.7-0.5,12.3-1.6,17
		C915.4,2509.4,913.2,2511.7,910,2511.7z M828.8,2460.9c0-10.4-4.2-19.3-12.6-26.6c-8.4-7.3-19-11-31.8-11H609.5v40.8h182.9
		c6.9,0,13.7,0.3,20.4,0.8c6.7,0.5,12,0.9,16,1.2C828.8,2464.2,828.8,2462.5,828.8,2460.9z"/>
	<path class="st1" d="M910,2511.7c-2.9,0-5-2.3-6.2-7c-1.2-4.7-1.8-10.5-1.8-17.4c0-6.9,0.6-12.5,1.8-16.8c1.2-4.3,3.3-6.4,6.2-6.4
		h36c-0.3-6.7-0.6-14.1-1-22.2c-0.4-8.1-0.6-16.9-0.6-26.2v-4.4l52.8-6.4l1.2,3.2v4.8c0,8.5,0.2,17.3,0.6,26.2
		c0.4,8.9,0.9,17.3,1.4,25h39.6c-0.5-8.3-1-17.4-1.4-27.4c-0.4-10-0.6-20.3-0.6-31v-13.6l52.8-6.4l1.2,3.2v24
		c0,8.5,0.2,17.3,0.6,26.2c0.4,8.9,0.9,17.3,1.4,25h39.6c-0.5-8.3-1-17.4-1.4-27.4c-0.4-10-0.6-20.3-0.6-31v-32.4l52.8-6.4l1.2,3.2
		v42.8c0,8.5,0.2,17.3,0.6,26.2c0.4,8.9,0.9,17.3,1.4,25h23.2c3.2,0,5.3,2.1,6.4,6.4c1.1,4.3,1.6,10,1.6,17.2c0,6.7-0.5,12.3-1.6,17
		c-1.1,4.7-3.2,7-6.4,7H910z"/>
	<path class="st1" d="M1312.2,2318.8c-6.4,0-11.8-2.1-16.2-6.4c-4.4-4.3-6.6-9.6-6.6-16s2.2-11.8,6.6-16.2s9.8-6.6,16.2-6.6
		s11.8,2.2,16.2,6.6s6.6,9.8,6.6,16.2s-2.2,11.7-6.6,16C1324,2316.7,1318.6,2318.8,1312.2,2318.8z"/>
	<path class="st1" d="M1210.9,2511.7c-2.9,0-5-2.3-6.2-7c-1.2-4.7-1.8-10.5-1.8-17.4c0-6.9,0.6-12.5,1.8-16.8
		c1.2-4.3,3.3-6.4,6.2-6.4h34c-6.7-10.4-10-22.4-10-36c0-15.2,3.4-28.7,10.2-40.4c6.8-11.7,16.1-21,27.8-27.8
		c11.7-6.8,24.8-10.2,39.2-10.2c16.8,0,31.3,5.1,43.4,15.2c12.1,10.1,21.5,24.4,28,42.8c6.5,18.4,9.8,40.3,9.8,65.6
		c0.5,9.6,1.2,20.5,2,32.8l-6,5.6H1210.9z M1322.6,2464.1c2.9,0,5.9,0.1,8.8,0.2c2.9,0.1,5.6,0.3,8,0.6c-0.8-20-4-36.3-9.6-48.8
		c-5.6-12.5-11.9-18.8-18.8-18.8c-2.7,0-5.7,1.1-9.2,3.2c-3.5,2.1-6.5,5.8-9,11c-2.5,5.2-3.8,12.2-3.8,21c0,11.2,2.7,19.3,8,24.2
		C1302.3,2461.6,1310.8,2464.1,1322.6,2464.1z"/>
	<path class="st1" d="M1532.7,2464.1h13.6v-250.5l52.8-6.4l1.2,3.2v165.3h174.9c17.3,0,33.5,3.6,48.4,10.8c14.9,7.2,27,17.2,36.2,30
		c9.2,12.8,13.8,27.6,13.8,44.4c0,1.1,0,2.1,0,3.2h27.2c3.2,0,5.3,2.1,6.4,6.4c1.1,4.3,1.6,10,1.6,17.2c0,6.7-0.5,12.3-1.6,17
		c-1.1,4.7-3.2,7-6.4,7h-389.3l-2-3.6L1532.7,2464.1z M1819.6,2460.9c0-10.4-4.2-19.3-12.6-26.6c-8.4-7.3-19-11-31.8-11h-174.9v40.8
		h182.9c6.9,0,13.7,0.3,20.4,0.8c6.7,0.5,12,0.9,16,1.2C1819.6,2464.2,1819.6,2462.5,1819.6,2460.9z"/>
	<path class="st1" d="M1992.4,2308c-6.4,0-11.8-2.1-16.2-6.4c-4.4-4.3-6.6-9.6-6.6-16s2.2-11.8,6.6-16.2s9.8-6.6,16.2-6.6
		s11.8,2.2,16.2,6.6s6.6,9.8,6.6,16.2s-2.2,11.7-6.6,16C2004.2,2305.9,1998.8,2308,1992.4,2308z"/>
	<path class="st1" d="M1900.8,2511.7c-2.9,0-5-2.3-6.2-7c-1.2-4.7-1.8-10.5-1.8-17.4c0-6.9,0.6-12.5,1.8-16.8
		c1.2-4.3,3.3-6.4,6.2-6.4h75.2c10.7,0,21.2,0.3,31.6,0.8c10.4,0.5,18.8,0.9,25.2,1.2c-20.5-11.5-40-24.5-58.4-39.2
		c-18.4-14.7-34.7-30.3-48.8-46.8l38.4-30.8h2.8c8,10.1,18,20.9,30,32.2c12,11.3,25.5,22.4,40.6,33.2c15.1,10.8,31.1,20.5,48.2,29.2
		c17.1,8.7,34.8,15.4,53.2,20.2h22v2.8l-13.6,44.8H1900.8z"/>
</g>
<g>
	<path class="st1" d="M80.9,2107.3h14.8v-256.5l44.8-5.6l1.2,3.2v174.5h173.7c16,0,30.9,3.4,44.6,10.2c13.7,6.8,24.8,16.1,33.2,28
		c8.4,11.9,12.6,25.5,12.6,41c0,8,0.4,15.5,1.2,22.6c0.8,7.1,1.7,13.3,2.8,18.6l-6,5.6H62.1l-1.6-3.2L80.9,2107.3z M359.8,2102.1
		c0-10.4-4.2-19.3-12.6-26.6c-8.4-7.3-19-11-31.8-11H141.7v42.8h181.7c6.7,0,13.4,0.2,20.2,0.6s12.2,0.9,16.2,1.4
		C359.8,2106.9,359.8,2104.5,359.8,2102.1z"/>
	<path class="st1" d="M455.5,2149v-298.1l44.8-5.6l1.2,3.2v258.9h34.4c3.2,0,5.3,1.9,6.4,5.6c1.1,3.7,1.6,8.7,1.6,14.8
		c0,6.1-0.5,11.2-1.6,15.2c-1.1,4-3.2,6-6.4,6H455.5z"/>
	<path class="st1" d="M535.9,2149c-2.9,0-5-2-6.2-6c-1.2-4-1.8-9.1-1.8-15.2c0-6.1,0.6-11.1,1.8-14.8c1.2-3.7,3.3-5.6,6.2-5.6h34.4
		v-256.5l44.8-5.6l1.2,3.2v174.5H790c16,0,30.9,3.4,44.6,10.2c13.7,6.8,24.8,16.1,33.2,28c8.4,11.9,12.6,25.5,12.6,41
		c0,1.9,0,3.6,0,5.2h26.8c3.2,0,5.3,1.9,6.4,5.6c1.1,3.7,1.6,8.7,1.6,14.8c0,6.1-0.5,11.2-1.6,15.2c-1.1,4-3.2,6-6.4,6H535.9z
		 M834.4,2102.1c0-10.4-4.2-19.3-12.6-26.6c-8.4-7.3-19-11-31.8-11H616.3v42.8H798c6.9,0,13.7,0.2,20.4,0.6c6.7,0.4,12,0.9,16,1.4
		C834.4,2106.9,834.4,2104.5,834.4,2102.1z"/>
	<path class="st1" d="M907.2,2149c-2.9,0-5-2-6.2-6c-1.2-4-1.8-9.1-1.8-15.2c0-6.1,0.6-11.1,1.8-14.8c1.2-3.7,3.3-5.6,6.2-5.6H944
		c-0.5-7.5-1.1-16-1.6-25.6c-0.5-9.6-0.8-19.6-0.8-30v-4l44.8-5.6l1.2,3.2v6.8c0,9.3,0.3,18.8,0.8,28.4c0.5,9.6,1.1,18.5,1.6,26.8
		h45.2c-0.8-8.5-1.5-18.5-2-29.8c-0.5-11.3-0.8-22.9-0.8-34.6v-14.4l44.8-5.6l1.2,3.2v24c0,9.9,0.3,19.7,0.8,29.6
		c0.5,9.9,1.2,19.1,2,27.6h44.8c-0.5-8.5-1.1-18.5-1.6-29.8c-0.5-11.3-0.8-22.9-0.8-34.6v-33.2l44.8-5.6l1.2,3.2v42.8
		c0,9.9,0.2,19.7,0.6,29.6c0.4,9.9,1,19.1,1.8,27.6h25.2c3.2,0,5.3,1.9,6.4,5.6c1.1,3.7,1.6,8.7,1.6,14.8c0,6.1-0.5,11.2-1.6,15.2
		c-1.1,4-3.2,6-6.4,6H907.2z"/>
	<path class="st1" d="M1296.2,1959.3c-6.1,0-11.3-2-15.4-6c-4.1-4-6.2-9.1-6.2-15.2c0-6.1,2.1-11.3,6.2-15.4
		c4.1-4.1,9.3-6.2,15.4-6.2c6.1,0,11.3,2.1,15.4,6.2c4.1,4.1,6.2,9.3,6.2,15.4c0,6.1-2.1,11.2-6.2,15.2
		C1307.4,1957.3,1302.3,1959.3,1296.2,1959.3z"/>
	<path class="st1" d="M1197.3,2149c-2.9,0-5-2-6.2-6c-1.2-4-1.8-9.1-1.8-15.2c0-6.1,0.6-11.1,1.8-14.8c1.2-3.7,3.3-5.6,6.2-5.6h35.6
		c-8.3-11.2-12.4-24.5-12.4-40c0-14.9,3.4-28.2,10.2-39.8c6.8-11.6,15.9-20.7,27.2-27.4c11.3-6.7,24.1-10,38.2-10
		c16.5,0,30.7,5.1,42.6,15.4c11.9,10.3,20.9,24.5,27.2,42.8c6.3,18.3,9.4,39.6,9.4,63.8c0.3,8,0.6,14.9,1,20.8
		c0.4,5.9,0.6,9.5,0.6,10.8l-4.8,5.2H1197.3z M1318.6,2107.5c4,0.1,7.6,0.3,10.8,0.6c-0.5-23.2-4.1-41.7-10.6-55.6
		c-6.5-13.9-14.5-20.8-23.8-20.8c-6.4,0-12.7,3.1-19,9.4c-6.3,6.3-9.4,16.3-9.4,30.2c0,24,13.3,36,40,36
		C1310.6,2107.3,1314.6,2107.4,1318.6,2107.5z"/>
	<path class="st1" d="M1515.9,2107.3h14.8v-256.5l44.8-5.6l1.2,3.2v174.5h173.7c16,0,30.9,3.4,44.6,10.2c13.7,6.8,24.8,16.1,33.2,28
		c8.4,11.9,12.6,25.5,12.6,41c0,1.9,0,3.6,0,5.2h26.8c3.2,0,5.3,1.9,6.4,5.6c1.1,3.7,1.6,8.7,1.6,14.8c0,6.1-0.5,11.2-1.6,15.2
		c-1.1,4-3.2,6-6.4,6H1497l-1.6-3.2L1515.9,2107.3z M1794.8,2102.1c0-10.4-4.2-19.3-12.6-26.6c-8.4-7.3-19-11-31.8-11h-173.7v42.8
		h181.7c6.7,0,13.4,0.2,20.2,0.6s12.2,0.9,16.2,1.4C1794.8,2106.9,1794.8,2104.5,1794.8,2102.1z"/>
	<path class="st1" d="M1952.4,1951.3c-6.1,0-11.3-2-15.4-6c-4.1-4-6.2-9.1-6.2-15.2c0-6.1,2.1-11.3,6.2-15.4
		c4.1-4.1,9.3-6.2,15.4-6.2c6.1,0,11.3,2.1,15.4,6.2c4.1,4.1,6.2,9.3,6.2,15.4c0,6.1-2.1,11.2-6.2,15.2
		C1963.7,1949.3,1958.6,1951.3,1952.4,1951.3z"/>
	<path class="st1" d="M1867.6,2149c-2.9,0-5-2-6.2-6c-1.2-4-1.8-9.1-1.8-15.2c0-6.1,0.6-11.1,1.8-14.8c1.2-3.7,3.3-5.6,6.2-5.6h86
		c9.3,0,18.6,0.2,27.8,0.6s16.6,0.9,22.2,1.4c-21.6-11.7-42.1-25.3-61.4-40.8c-19.3-15.5-36.4-32-51-49.6l32.8-26.4h2.8
		c8.3,10.1,18.4,20.9,30.4,32.2c12,11.3,25.5,22.4,40.4,33.2c14.9,10.8,30.9,20.5,48,29.2c17.1,8.7,34.8,15.4,53.2,20.2h21.6v2.8
		l-11.6,38.8H1867.6z"/>
</g>
<g>
	<path class="st1" d="M108.7,1748.6h15.6v-261.3l38.8-4.8l1.2,3.2V1667h172.9c15.2,0,29.2,3.3,42,9.8c12.8,6.5,23.1,15.4,30.8,26.6
		c7.7,11.2,11.6,24,11.6,38.4c0,8.5,0.4,15.9,1.2,22.2c0.8,6.3,1.6,11.7,2.4,16.2l-6,5.6H91.9l-1.6-2.8L108.7,1748.6z M381.6,1741.8
		c0-10.4-4.2-19.3-12.6-26.6c-8.4-7.3-19-11-31.8-11H164.4v44.4h180.9c6.7,0,13.4,0.2,20.2,0.6c6.8,0.4,12.2,0.9,16.2,1.4
		C381.6,1747.7,381.6,1744.7,381.6,1741.8z"/>
	<path class="st1" d="M472.9,1785.8v-298.5l38.8-4.8l1.2,3.2v262.9h34.4c3.2,0,5.3,1.7,6.4,5c1.1,3.3,1.6,7.8,1.6,13.4
		c0,5.3-0.5,9.8-1.6,13.4c-1.1,3.6-3.2,5.4-6.4,5.4H472.9z"/>
	<path class="st1" d="M547.3,1785.8c-2.9,0-5-1.8-6.2-5.4c-1.2-3.6-1.8-8.2-1.8-13.8c0-5.3,0.6-9.7,1.8-13c1.2-3.3,3.3-5,6.2-5h34.4
		v-261.3l38.8-4.8l1.2,3.2V1667h172.9c15.2,0,29.2,3.3,42,9.8c12.8,6.5,23.1,15.4,30.8,26.6c7.7,11.2,11.6,24,11.6,38.4
		c0,2.4,0,4.7,0,6.8h26.4c3.2,0,5.3,1.7,6.4,5c1.1,3.3,1.6,7.8,1.6,13.4c0,5.3-0.5,9.8-1.6,13.4c-1.1,3.6-3.2,5.4-6.4,5.4H547.3z
		 M839,1741.8c0-10.4-4.2-19.3-12.6-26.6c-8.4-7.3-19-11-31.8-11H621.7v44.4h180.9c6.9,0,13.7,0.2,20.4,0.6c6.7,0.4,12,0.9,16,1.4
		C839,1747.7,839,1744.7,839,1741.8z"/>
	<path class="st1" d="M905.4,1785.8c-2.9,0-5-1.8-6.2-5.4c-1.2-3.6-1.8-8.2-1.8-13.8c0-5.3,0.6-9.7,1.8-13c1.2-3.3,3.3-5,6.2-5h37.2
		c-0.5-8-1.1-17.3-1.8-28c-0.7-10.7-1-21.7-1-33.2v-3.6l38.8-4.8l1.2,3.2v8.4c0,9.6,0.3,19.5,0.8,29.8c0.5,10.3,1.2,19.7,2,28.2
		h49.2c-0.8-8.5-1.5-18.9-2.2-31.2c-0.7-12.3-1-24.8-1-37.6v-15.2l38.8-4.8l1.2,3.2v24c0,10.7,0.3,21.4,1,32.2
		c0.7,10.8,1.4,20.6,2.2,29.4h48.8c-0.5-8.5-1.1-18.9-1.8-31.2c-0.7-12.3-1-24.8-1-37.6v-34l38.8-4.8l1.2,3.2v42.8
		c0,10.7,0.3,21.4,0.8,32.2c0.5,10.8,1.2,20.6,2,29.4h26.8c3.2,0,5.3,1.7,6.4,5c1.1,3.3,1.6,7.8,1.6,13.4c0,5.3-0.5,9.8-1.6,13.4
		c-1.1,3.6-3.2,5.4-6.4,5.4H905.4z"/>
	<path class="st1" d="M1284.4,1598.5c-5.9,0-10.8-1.9-14.8-5.8c-4-3.9-6-8.7-6-14.6c0-5.9,2-10.8,6-14.8s8.9-6,14.8-6
		c5.9,0,10.8,2,14.8,6s6,8.9,6,14.8c0,5.9-2,10.7-6,14.6C1295.2,1596.6,1290.2,1598.5,1284.4,1598.5z"/>
	<path class="st1" d="M1187.5,1785.8c-2.9,0-5-1.8-6.2-5.4c-1.2-3.6-1.8-8.2-1.8-13.8c0-5.3,0.6-9.7,1.8-13c1.2-3.3,3.3-5,6.2-5
		h36.8c-9.3-11.7-14-26-14-42.8c0-14.7,3.3-27.7,10-39.2c6.7-11.5,15.6-20.5,26.8-27.2c11.2-6.7,23.6-10,37.2-10
		c16.5,0,30.6,5.1,42.2,15.4c11.6,10.3,20.5,24.5,26.6,42.6c6.1,18.1,9.2,39.1,9.2,62.8c0,6.9,0.2,13.3,0.6,19
		c0.4,5.7,0.7,9.7,1,11.8l-4.4,4.8H1187.5z M1295.2,1748.6c4.8,0,9.7,0.1,14.6,0.4c4.9,0.3,9.1,0.5,12.6,0.8v-2
		c-0.5-25.1-4.3-44.9-11.4-59.4c-7.1-14.5-16.2-21.8-27.4-21.8c-8.3,0-15.9,3.6-22.8,10.8c-6.9,7.2-10.4,17.9-10.4,32
		c0,26.1,14.8,39.2,44.4,39.2H1295.2z"/>
	<path class="st1" d="M1503.7,1748.6h15.6v-261.3l38.8-4.8l1.2,3.2V1667h172.9c15.2,0,29.2,3.3,42,9.8c12.8,6.5,23.1,15.4,30.8,26.6
		c7.7,11.2,11.6,24,11.6,38.4c0,2.4,0,4.7,0,6.8h26.4c3.2,0,5.3,1.7,6.4,5c1.1,3.3,1.6,7.8,1.6,13.4c0,5.3-0.5,9.8-1.6,13.4
		c-1.1,3.6-3.2,5.4-6.4,5.4h-356.1l-1.6-2.8L1503.7,1748.6z M1776.6,1741.8c0-10.4-4.2-19.3-12.6-26.6c-8.4-7.3-19-11-31.8-11
		h-172.9v44.4h180.9c6.7,0,13.4,0.2,20.2,0.6c6.8,0.4,12.2,0.9,16.2,1.4C1776.6,1747.7,1776.6,1744.7,1776.6,1741.8z"/>
	<path class="st1" d="M1923,1592.5c-5.9,0-10.8-1.9-14.8-5.8c-4-3.9-6-8.7-6-14.6c0-5.9,2-10.8,6-14.8s8.9-6,14.8-6
		c5.9,0,10.8,2,14.8,6s6,8.9,6,14.8c0,5.9-2,10.7-6,14.6C1933.8,1590.6,1928.9,1592.5,1923,1592.5z"/>
	<path class="st1" d="M1843,1785.8c-2.9,0-5-1.8-6.2-5.4c-1.2-3.6-1.8-8.2-1.8-13.8c0-5.3,0.6-9.7,1.8-13c1.2-3.3,3.3-5,6.2-5h94
		c8.3,0,16.5,0.2,24.8,0.6c8.3,0.4,14.9,0.9,20,1.4c-22.1-12-43.3-26.1-63.4-42.2c-20.1-16.1-37.7-33.4-52.6-51.8l28.8-22.8h2.8
		c8,9.9,18,20.5,30,32c12,11.5,25.5,22.6,40.4,33.4c14.9,10.8,31,20.5,48.2,29.2c17.2,8.7,35,15.4,53.4,20.2h21.2v2.8l-10.4,34.4
		H1843z"/>
</g>
<g>
	<path class="st1" d="M137.1,1390h16.4v-265.7l32.8-4l1.2,3.2v188.1h172.1c14.1,0,27.1,3,39,9c11.9,6,21.4,14.3,28.6,25
		c7.2,10.7,10.8,22.8,10.8,36.4c0,8.5,0.4,15.6,1.2,21.2s1.5,10.3,2,14l-6,5.6H122.3l-1.6-2.8L137.1,1390z M404,1382
		c0-10.4-4.2-19.3-12.6-26.6c-8.4-7.3-19-11-31.8-11H187.6v45.6h180.1c6.7,0,13.4,0.2,20.2,0.6c6.8,0.4,12.2,0.9,16.2,1.4
		C404,1388.8,404,1385.5,404,1382z"/>
	<path class="st1" d="M490.1,1422.9v-298.5l32.8-4l1.2,3.2V1390h34.4c3.2,0,5.3,1.5,6.4,4.4c1.1,2.9,1.6,6.8,1.6,11.6
		s-0.5,8.8-1.6,12c-1.1,3.2-3.2,4.8-6.4,4.8H490.1z"/>
	<path class="st1" d="M558.5,1422.9c-2.9,0-5-1.6-6.2-4.8c-1.2-3.2-1.8-7.2-1.8-12s0.6-8.7,1.8-11.6c1.2-2.9,3.3-4.4,6.2-4.4h34.4
		v-265.7l32.8-4l1.2,3.2v188.1H799c14.1,0,27.1,3,39,9c11.9,6,21.4,14.3,28.6,25c7.2,10.7,10.8,22.8,10.8,36.4c0,2.7,0,5.3,0,8h26
		c3.2,0,5.3,1.5,6.4,4.4c1.1,2.9,1.6,6.8,1.6,11.6s-0.5,8.8-1.6,12c-1.1,3.2-3.2,4.8-6.4,4.8H558.5z M843.4,1382
		c0-10.4-4.2-19.3-12.6-26.6c-8.4-7.3-19-11-31.8-11H626.9v45.6H807c6.7,0,13.4,0.2,20.2,0.6c6.8,0.4,12.2,0.9,16.2,1.4
		C843.4,1388.8,843.4,1385.5,843.4,1382z"/>
	<path class="st1" d="M903.4,1422.9c-2.9,0-5-1.6-6.2-4.8c-1.2-3.2-1.8-7.2-1.8-12s0.6-8.7,1.8-11.6c1.2-2.9,3.3-4.4,6.2-4.4H941
		c-0.8-8-1.5-18-2.2-30c-0.7-12-1-24.1-1-36.4v-3.6l32.8-4l1.2,3.2v10c0,9.9,0.3,20.3,1,31.2c0.7,10.9,1.4,20.8,2.2,29.6h53.2
		c-0.8-8.5-1.6-19.3-2.4-32.4c-0.8-13.1-1.2-26.7-1.2-40.8v-16l32.8-4l1.2,3.2v24c0,11.5,0.3,23.1,1,34.8
		c0.7,11.7,1.4,22.1,2.2,31.2h53.2c-0.8-8.5-1.5-19.3-2.2-32.4c-0.7-13.1-1-26.7-1-40.8V1282l32.8-4l1.2,3.2v42.8
		c0,11.5,0.3,23.1,1,34.8c0.7,11.7,1.4,22.1,2.2,31.2h28.4c3.2,0,5.3,1.5,6.4,4.4c1.1,2.9,1.6,6.8,1.6,11.6s-0.5,8.8-1.6,12
		c-1.1,3.2-3.2,4.8-6.4,4.8H903.4z"/>
	<path class="st1" d="M1272.4,1238c-5.6,0-10.3-1.9-14.2-5.8c-3.9-3.9-5.8-8.6-5.8-14.2c0-5.3,1.9-9.9,5.8-13.8
		c3.9-3.9,8.6-5.8,14.2-5.8c5.3,0,9.9,1.9,13.8,5.8c3.9,3.9,5.8,8.5,5.8,13.8c0,5.6-1.9,10.3-5.8,14.2
		C1282.3,1236.1,1277.7,1238,1272.4,1238z"/>
	<path class="st1" d="M1177.5,1422.9c-2.9,0-5-1.6-6.2-4.8s-1.8-7.2-1.8-12s0.6-8.7,1.8-11.6c1.2-2.9,3.3-4.4,6.2-4.4h38.4
		c-5.6-6.4-9.7-13.5-12.2-21.2c-2.5-7.7-3.8-15.9-3.8-24.4c0-14.4,3.3-27.3,9.8-38.8c6.5-11.5,15.3-20.5,26.4-27
		c11.1-6.5,23.1-9.8,36.2-9.8c16.5,0,30.5,5.2,42,15.6c11.5,10.4,20.1,24.6,26,42.6c5.9,18,8.8,38.5,8.8,61.4c0,5.9,0.1,11.5,0.4,17
		c0.3,5.5,0.5,9.8,0.8,13l-3.2,4.4H1177.5z M1283.6,1390c5.6,0,11.3,0.2,17,0.6c5.7,0.4,10.6,0.7,14.6,1v-4
		c-0.3-26.9-4.3-48-12.2-63.2c-7.9-15.2-18.3-22.8-31.4-22.8c-9.9,0-18.6,4-26.2,12c-7.6,8-11.4,19.3-11.4,34c0,13.6,4,24.1,12,31.4
		c8,7.3,20.3,11,36.8,11H1283.6z"/>
	<path class="st1" d="M1490.8,1390h16.4v-265.7l32.8-4l1.2,3.2v188.1h172.1c14.1,0,27.1,3,39,9c11.9,6,21.4,14.3,28.6,25
		c7.2,10.7,10.8,22.8,10.8,36.4c0,2.7,0,5.3,0,8h26c3.2,0,5.3,1.5,6.4,4.4c1.1,2.9,1.6,6.8,1.6,11.6s-0.5,8.8-1.6,12
		c-1.1,3.2-3.2,4.8-6.4,4.8H1476l-1.6-2.8L1490.8,1390z M1757.7,1382c0-10.4-4.2-19.3-12.6-26.6c-8.4-7.3-19-11-31.8-11h-172.1v45.6
		h180.1c6.7,0,13.4,0.2,20.2,0.6c6.8,0.4,12.2,0.9,16.2,1.4C1757.7,1388.8,1757.7,1385.5,1757.7,1382z"/>
	<path class="st1" d="M1892.6,1234c-5.6,0-10.3-1.9-14.2-5.8c-3.9-3.9-5.8-8.6-5.8-14.2c0-5.3,1.9-9.9,5.8-13.8
		c3.9-3.9,8.6-5.8,14.2-5.8c5.3,0,9.9,1.9,13.8,5.8c3.9,3.9,5.8,8.5,5.8,13.8c0,5.6-1.9,10.3-5.8,14.2
		C1902.5,1232.1,1897.9,1234,1892.6,1234z"/>
	<path class="st1" d="M1817.8,1422.9c-2.9,0-5-1.6-6.2-4.8s-1.8-7.2-1.8-12s0.6-8.7,1.8-11.6c1.2-2.9,3.3-4.4,6.2-4.4h102.4
		c7.2,0,14.3,0.2,21.4,0.6c7.1,0.4,12.9,0.9,17.4,1.4c-22.7-12-44.4-26.4-65.2-43.2c-20.8-16.8-38.8-34.8-54-54l24.4-19.6h2.8
		c8,9.9,18,20.5,30,32c12,11.5,25.5,22.6,40.4,33.4c14.9,10.8,31,20.5,48.2,29.2c17.2,8.7,35,15.4,53.4,20.2h21.2v2.8l-9.2,30
		H1817.8z"/>
</g>
<g>
	<path class="st1" d="M155.5,1029.3h17.2V760.8l28.8-3.6l1.2,3.2v192.5H374c13.6,0,26.1,2.9,37.4,8.8c11.3,5.9,20.3,13.9,27,24
		c6.7,10.1,10,21.7,10,34.8c0,8.8,0.4,15.7,1.2,20.8c0.8,5.1,1.5,9.2,2,12.4l-6,5.6H141.9l-1.2-2.4L155.5,1029.3z M418.4,1020.5
		c0-10.4-4.2-19.3-12.6-26.6c-8.4-7.3-19-11-31.8-11H202.8v46.4H382c6.9,0,13.8,0.3,20.6,0.8c6.8,0.5,12.2,0.9,16.2,1.2
		C418.6,1027.8,418.4,1024.2,418.4,1020.5z"/>
	<path class="st1" d="M501.7,1059.3V760.8l28.8-3.6l1.2,3.2v268.9h34.4c3.2,0,5.3,1.3,6.4,4c1.1,2.7,1.6,6.3,1.6,10.8
		c0,4.3-0.5,7.9-1.6,10.8c-1.1,2.9-3.2,4.4-6.4,4.4H501.7z"/>
	<path class="st1" d="M566.1,1059.3c-2.9,0-5-1.5-6.2-4.4c-1.2-2.9-1.8-6.5-1.8-10.8c0-4.5,0.6-8.1,1.8-10.8c1.2-2.7,3.3-4,6.2-4
		h34.4V760.8l28.8-3.6l1.2,3.2v192.5h171.3c13.6,0,26.1,2.9,37.4,8.8c11.3,5.9,20.3,13.9,27,24c6.7,10.1,10,21.7,10,34.8
		c0,3.2,0,6.1,0,8.8h26c3.2,0,5.3,1.3,6.4,4c1.1,2.7,1.6,6.3,1.6,10.8c0,4.3-0.5,7.9-1.6,10.8c-1.1,2.9-3.2,4.4-6.4,4.4H566.1z
		 M846.2,1020.5c0-10.4-4.2-19.3-12.6-26.6c-8.4-7.3-19-11-31.8-11H630.5v46.4h179.3c6.9,0,13.8,0.3,20.6,0.8
		c6.8,0.5,12.2,0.9,16.2,1.2C846.3,1027.8,846.2,1024.2,846.2,1020.5z"/>
	<path class="st1" d="M902.2,1059.3c-2.9,0-5-1.5-6.2-4.4c-1.2-2.9-1.8-6.5-1.8-10.8c0-4.5,0.6-8.1,1.8-10.8c1.2-2.7,3.3-4,6.2-4h38
		c-0.8-8-1.6-18.5-2.4-31.4c-0.8-12.9-1.2-25.8-1.2-38.6v-3.2l28.8-3.6l1.2,3.2v10.8c0,10.4,0.4,21.3,1.2,32.6
		c0.8,11.3,1.6,21.4,2.4,30.2h55.6c-0.8-8.3-1.6-19.3-2.4-33c-0.8-13.7-1.2-28.1-1.2-43v-16.4l28.8-3.6l1.2,3.2v24
		c0,12.3,0.4,24.5,1.2,36.8c0.8,12.3,1.6,22.9,2.4,32h55.6c-0.8-8.3-1.6-19.3-2.4-33c-0.8-13.7-1.2-28.1-1.2-43V918l28.8-3.6
		l1.2,3.2v42.8c0,12.3,0.4,24.5,1.2,36.8c0.8,12.3,1.6,22.9,2.4,32h29.6c3.2,0,5.3,1.3,6.4,4c1.1,2.7,1.6,6.3,1.6,10.8
		c0,4.3-0.5,7.9-1.6,10.8c-1.1,2.9-3.2,4.4-6.4,4.4H902.2z"/>
	<path class="st1" d="M1264.8,876c-5.3,0-9.9-1.9-13.6-5.6c-3.7-3.7-5.6-8.3-5.6-13.6c0-5.3,1.9-9.9,5.6-13.6
		c3.7-3.7,8.3-5.6,13.6-5.6c5.3,0,9.9,1.9,13.6,5.6c3.7,3.7,5.6,8.3,5.6,13.6c0,5.3-1.9,9.9-5.6,13.6
		C1274.6,874.2,1270.1,876,1264.8,876z"/>
	<path class="st1" d="M1171.1,1059.3c-2.9,0-5-1.5-6.2-4.4c-1.2-2.9-1.8-6.5-1.8-10.8c0-4.5,0.6-8.1,1.8-10.8c1.2-2.7,3.3-4,6.2-4
		h39.6c-6.1-6.4-10.6-13.7-13.4-21.8c-2.8-8.1-4.2-16.6-4.2-25.4c0-14.7,3.3-27.6,9.8-38.8c6.5-11.2,15.3-20.1,26.2-26.6
		c10.9-6.5,22.8-9.8,35.6-9.8c16.5,0,30.4,5.2,41.6,15.6c11.2,10.4,19.7,24.5,25.4,42.4c5.7,17.9,8.6,38.2,8.6,60.8
		c0,5.1,0.1,10.3,0.4,15.6c0.3,5.3,0.5,10,0.8,14l-2.8,4H1171.1z M1276,1029.3c6.4,0,12.7,0.2,18.8,0.6c6.1,0.4,11.3,0.9,15.6,1.4
		v-5.6c-0.3-28.3-4.5-50.2-12.6-65.6c-8.1-15.5-19.4-23.2-33.8-23.2c-10.9,0-20.5,4.3-28.6,12.8c-8.1,8.5-12.2,20.3-12.2,35.2
		c0,13.9,4.3,24.7,13,32.6c8.7,7.9,21.7,11.8,39,11.8H1276z"/>
	<path class="st1" d="M1482.4,1029.3h17.2V760.8l28.8-3.6l1.2,3.2v192.5h171.3c13.6,0,26.1,2.9,37.4,8.8c11.3,5.9,20.3,13.9,27,24
		c6.7,10.1,10,21.7,10,34.8c0,3.2,0,6.1,0,8.8h26c3.2,0,5.3,1.3,6.4,4c1.1,2.7,1.6,6.3,1.6,10.8c0,4.3-0.5,7.9-1.6,10.8
		c-1.1,2.9-3.2,4.4-6.4,4.4h-332.5l-1.2-2.4L1482.4,1029.3z M1745.3,1020.5c0-10.4-4.2-19.3-12.6-26.6c-8.4-7.3-19-11-31.8-11
		h-171.3v46.4h179.3c6.9,0,13.8,0.3,20.6,0.8c6.8,0.5,12.2,0.9,16.2,1.2C1745.5,1027.8,1745.3,1024.2,1745.3,1020.5z"/>
	<path class="st1" d="M1873,873.2c-5.3,0-9.9-1.9-13.6-5.6c-3.7-3.7-5.6-8.3-5.6-13.6c0-5.3,1.9-9.9,5.6-13.6
		c3.7-3.7,8.3-5.6,13.6-5.6c5.3,0,9.9,1.9,13.6,5.6c3.7,3.7,5.6,8.3,5.6,13.6c0,5.3-1.9,9.9-5.6,13.6
		C1882.9,871.4,1878.3,873.2,1873,873.2z"/>
	<path class="st1" d="M1801.4,1059.3c-2.9,0-5-1.5-6.2-4.4c-1.2-2.9-1.8-6.5-1.8-10.8c0-4.5,0.6-8.1,1.8-10.8c1.2-2.7,3.3-4,6.2-4
		H1909c6.4,0,12.9,0.2,19.4,0.6c6.5,0.4,11.8,0.9,15.8,1.4c-22.9-12-45-26.6-66.2-43.8c-21.2-17.2-39.7-35.7-55.4-55.4l22-17.6h2.8
		c8,10.1,18,20.9,30,32.2c12,11.3,25.5,22.4,40.4,33.2c14.9,10.8,31,20.5,48.2,29.2c17.2,8.7,35,15.4,53.4,20.2h20.8v2.8l-8.4,27.2
		H1801.4z"/>
</g>
<g>
	<path class="st1" d="M190.2,677.1h17.2V400.6l20.8-2.8l1.2,3.2v191.7h170.5c13.6,0,26.1,2.9,37.4,8.8c11.3,5.9,20.3,13.9,27,24
		c6.7,10.1,10,21.7,10,34.8c0,8.8,0.4,15.7,1.2,20.8c0.8,5.1,1.5,9.2,2,12.4l-6,5.6H180.6l-1.2-2.4L190.2,677.1z M452.3,660.3
		c0-12.8-5-23.6-15-32.4c-10-8.8-22.5-13.2-37.4-13.2H229.4v62.4h186.1c7.2,0,14.3,0.3,21.4,0.8c7.1,0.5,12.5,1.1,16.2,1.6
		c-0.3-2.7-0.5-5.6-0.6-8.8C452.3,667.5,452.3,664.1,452.3,660.3z"/>
	<path class="st1" d="M529.9,699.1V400.6l20.8-2.8l1.2,3.2v276.1h34.4c3.2,0,5.3,1,6.4,3c1.1,2,1.6,4.6,1.6,7.8s-0.5,5.9-1.6,8
		c-1.1,2.1-3.2,3.2-6.4,3.2H529.9z"/>
	<path class="st1" d="M586.3,699.1c-2.9,0-5-1.1-6.2-3.2c-1.2-2.1-1.8-4.8-1.8-8s0.6-5.8,1.8-7.8c1.2-2,3.3-3,6.2-3h34.4V400.6
		l20.8-2.8l1.2,3.2v191.7h170.5c13.6,0,26,2.9,37.2,8.8c11.2,5.9,20.2,13.9,27,24c6.8,10.1,10.2,21.7,10.2,34.8
		c0,3.5,0.1,6.5,0.2,9.2c0.1,2.7,0.3,5.2,0.6,7.6H912c3.2,0,5.3,1,6.4,3c1.1,2,1.6,4.6,1.6,7.8s-0.5,5.9-1.6,8
		c-1.1,2.1-3.2,3.2-6.4,3.2H586.3z M865.6,660.3c0-12.8-5-23.6-15-32.4c-10-8.8-22.5-13.2-37.4-13.2H642.7v62.4h186.1
		c7.2,0,14.3,0.3,21.2,0.8c6.9,0.5,12.4,1.1,16.4,1.6c-0.3-2.7-0.5-5.6-0.6-8.8C865.7,667.5,865.6,664.1,865.6,660.3z"/>
	<path class="st1" d="M912,699.1c-2.9,0-5-1.1-6.2-3.2c-1.2-2.1-1.8-4.8-1.8-8s0.6-5.8,1.8-7.8c1.2-2,3.3-3,6.2-3h38.8
		c-0.8-8.5-1.7-20-2.8-34.4c-1.1-14.4-1.6-28.8-1.6-43.2v-4.4l20.8-2.8l1.2,3.2v8c0,12.5,0.5,25.5,1.4,39c0.9,13.5,1.9,25,3,34.6
		h54.8c-0.8-8.5-1.7-20.3-2.8-35.2c-1.1-14.9-1.6-30.1-1.6-45.6v-20.4l20.8-2.8l1.2,3.2v24c0,13.6,0.5,27.4,1.4,41.4
		c0.9,14,1.9,25.8,3,35.4h54.8c-0.8-8.5-1.7-20.3-2.8-35.2c-1.1-14.9-1.6-30.1-1.6-45.6v-39.2l20.8-2.8l1.2,3.2v42.8
		c0,13.6,0.5,27.4,1.4,41.4c0.9,14,1.8,25.8,2.6,35.4h29.2c3.2,0,5.3,1,6.4,3c1.1,2,1.6,4.6,1.6,7.8s-0.5,5.9-1.6,8
		c-1.1,2.1-3.2,3.2-6.4,3.2H912z"/>
	<path class="st1" d="M1245,515.9c-4.3,0-7.9-1.5-10.8-4.4c-2.9-2.9-4.4-6.5-4.4-10.8c0-4.3,1.5-7.9,4.4-10.8
		c2.9-2.9,6.5-4.4,10.8-4.4c4.3,0,7.9,1.5,10.8,4.4c2.9,2.9,4.4,6.5,4.4,10.8c0,4.3-1.5,7.9-4.4,10.8
		C1252.8,514.4,1249.2,515.9,1245,515.9z"/>
	<path class="st1" d="M1155.3,699.1c-2.9,0-5-1.1-6.2-3.2c-1.2-2.1-1.8-4.8-1.8-8s0.6-5.8,1.8-7.8c1.2-2,3.3-3,6.2-3h43.6
		c-8.5-6.9-14.7-15.2-18.6-24.8c-3.9-9.6-5.8-19.5-5.8-29.6c0-14.9,3.3-28.1,10-39.4c6.7-11.3,15.3-20.3,26-26.8
		c10.7-6.5,22.3-9.8,34.8-9.8c15.7,0,29.1,5.2,40,15.6c10.9,10.4,19.1,24.5,24.6,42.4c5.5,17.9,8.2,38.2,8.2,60.8
		c0,4.8,0.2,9.9,0.6,15.2c0.4,5.3,0.6,9.9,0.6,13.6l-4,4.8H1155.3z M1260.6,677.1c6.7,0,13.3,0.3,20,0.8c6.7,0.5,12,0.9,16,1.2
		c0-2.1-0.1-4.4-0.2-6.8c-0.1-2.4-0.2-4.7-0.2-6.8c-0.3-30.9-5-54.8-14.2-71.6c-9.2-16.8-21.7-25.2-37.4-25.2c-8,0-15.7,2.3-23,6.8
		c-7.3,4.5-13.3,10.9-18,19.2c-4.7,8.3-7,18.3-7,30c0,16.3,5.1,29.1,15.4,38.4c10.3,9.3,25.1,14,44.6,14H1260.6z"/>
	<path class="st1" d="M1461.8,677.1h17.2V400.6l20.8-2.8l1.2,3.2v191.7h170.5c13.6,0,26.1,2.9,37.4,8.8c11.3,5.9,20.3,13.9,27,24
		c6.7,10.1,10,21.7,10,34.8c0,3.5,0.1,6.5,0.2,9.2c0.1,2.7,0.3,5.2,0.6,7.6h23.6c3.2,0,5.3,1,6.4,3c1.1,2,1.6,4.6,1.6,7.8
		s-0.5,5.9-1.6,8c-1.1,2.1-3.2,3.2-6.4,3.2h-318.1l-1.2-2.4L1461.8,677.1z M1723.9,660.3c0-12.8-5-23.6-15-32.4
		c-10-8.8-22.5-13.2-37.4-13.2h-170.5v62.4h186.1c7.2,0,14.3,0.3,21.4,0.8c7.1,0.5,12.5,1.1,16.2,1.6c-0.3-2.7-0.5-5.6-0.6-8.8
		C1724,667.5,1723.9,664.1,1723.9,660.3z"/>
	<path class="st1" d="M1836.8,513.1c-4.3,0-7.9-1.5-10.8-4.4c-2.9-2.9-4.4-6.5-4.4-10.8c0-4.3,1.5-7.9,4.4-10.8
		c2.9-2.9,6.5-4.4,10.8-4.4c4.3,0,7.9,1.5,10.8,4.4c2.9,2.9,4.4,6.5,4.4,10.8c0,4.3-1.5,7.9-4.4,10.8
		C1844.6,511.6,1841,513.1,1836.8,513.1z"/>
	<path class="st1" d="M1770.4,699.1c-2.9,0-5-1.1-6.2-3.2c-1.2-2.1-1.8-4.8-1.8-8s0.6-5.8,1.8-7.8c1.2-2,3.3-3,6.2-3h102.4
		c10.9,0,21.8,0.3,32.6,0.8c10.8,0.5,18.9,1.1,24.2,1.6c-18.1-9.1-35.8-19.7-52.8-32c-17.1-12.3-32.8-25.3-47-39.2
		c-14.3-13.9-26.6-27.7-37-41.6l15.6-12.4h2.8c8,10.7,18,22.1,30,34.2c12,12.1,25.5,24.1,40.6,35.8c15.1,11.7,31.2,22.2,48.4,31.4
		c17.2,9.2,35,16.3,53.4,21.4h17.6v2.8l-5.6,19.2H1770.4z"/>
</g>
<g>
	<path class="st1" d="M233.2,328h18V41.1l10.8-1.6l1.2,3.2v190.9h169.3c13.6,0,26.1,2.9,37.4,8.8c11.3,5.9,20.3,13.9,27,24
		c6.7,10.1,10,21.7,10,34.8c0,8.8,0.4,15.7,1.2,20.8c0.8,5.1,1.5,9.2,2,12.4l-6,5.6H229.2l-1.2-2.4L233.2,328z M494.9,301.2
		c0-10.4-2.7-19.8-8.2-28.2c-5.5-8.4-12.9-15.1-22.4-20c-9.5-4.9-20.1-7.4-31.8-7.4H263.2V328h194.5c7.7,0,15.3,0.3,22.8,1
		c7.5,0.7,12.9,1.1,16.4,1.4c-0.5-3.5-1-7.6-1.4-12.4C495.1,313.2,494.9,307.6,494.9,301.2z"/>
	<path class="st1" d="M566.1,340V41.1l10.8-1.6l1.2,3.2V328h34.4c3.2,0,5.3,0.5,6.4,1.6c1.1,1.1,1.6,2.5,1.6,4.4
		c0,1.9-0.5,3.3-1.6,4.4c-1.1,1.1-3.2,1.6-6.4,1.6H566.1z"/>
	<path class="st1" d="M612.5,340c-2.7,0-4.7-0.7-6-2c-1.3-1.3-2-2.7-2-4c0-4,2.7-6,8-6h34.4V41.1l10.8-1.6l1.2,3.2v190.9h169.3
		c13.6,0,26.1,2.9,37.4,8.8c11.3,5.9,20.3,13.9,27,24c6.7,10.1,10,21.7,10,34.8c0,6.1,0.2,11.4,0.6,15.8c0.4,4.4,0.9,8.1,1.4,11H925
		c3.2,0,5.3,0.5,6.4,1.6c1.1,1.1,1.6,2.5,1.6,4.4c0,1.9-0.5,3.3-1.6,4.4c-1.1,1.1-3.2,1.6-6.4,1.6H612.5z M890.6,301.2
		c0-10.4-2.7-19.8-8.2-28.2c-5.5-8.4-12.9-15.1-22.4-20c-9.5-4.9-20.1-7.4-31.8-7.4H658.9V328h194.5c7.2,0,14.3,0.3,21.4,0.8
		c7.1,0.5,12.5,1.1,16.2,1.6V328h1.2c-0.5-3.2-0.9-7-1.2-11.4C890.8,312.2,890.6,307,890.6,301.2z"/>
	<path class="st1" d="M925,340c-2.7,0-4.7-0.7-6-2c-1.3-1.3-2-2.7-2-4c0-4,2.7-6,8-6h40c-1.6-12.5-2.9-26.6-4-42.2
		c-1.1-15.6-1.6-30.5-1.6-44.6v-6.4l10.8-1.6l1.2,3.2v4.8c0,14.1,0.5,29,1.6,44.6c1.1,15.6,2.3,29.7,3.6,42.2h54
		c-1.1-12.5-2.3-26.6-3.6-42.2c-1.3-15.6-2-30.5-2-44.6v-25.6l10.8-1.6l1.2,3.2v24c0,14.1,0.5,29,1.6,44.6
		c1.1,15.6,2.3,29.7,3.6,42.2h54c-1.1-12.5-2.3-26.6-3.6-42.2c-1.3-15.6-2-30.5-2-44.6v-44.4l10.8-1.6l1.2,3.2v42.8
		c0,14.1,0.5,29,1.6,44.6c1.1,15.6,2.3,29.7,3.6,42.2h28c3.2,0,5.3,0.5,6.4,1.6c1.1,1.1,1.6,2.5,1.6,4.4c0,1.9-0.5,3.3-1.6,4.4
		c-1.1,1.1-3.2,1.6-6.4,1.6H925z"/>
	<path class="st1" d="M1220.3,156.7c-2.7,0-5-1-7-3c-2-2-3-4.3-3-7c0-2.9,1-5.3,3-7.2c2-1.9,4.3-2.8,7-2.8c2.9,0,5.3,0.9,7.2,2.8
		c1.9,1.9,2.8,4.3,2.8,7.2c0,2.7-0.9,5-2.8,7C1225.7,155.7,1223.3,156.7,1220.3,156.7z"/>
	<path class="st1" d="M1135.9,340c-2.7,0-4.7-0.7-6-2c-1.3-1.3-2-2.7-2-4c0-4,2.7-6,8-6h52c-13.1-6.7-22.3-15.8-27.8-27.4
		c-5.5-11.6-8.2-23.5-8.2-35.8c0-15.5,3.3-28.9,9.8-40.4c6.5-11.5,15.1-20.5,25.8-27c10.7-6.5,21.9-9.8,33.6-9.8
		c15.2,0,28,5.2,38.4,15.6s18.3,24.5,23.6,42.4c5.3,17.9,8,38.2,8,60.8c0,4.5,0.1,9.4,0.4,14.6c0.3,5.2,0.5,9.7,0.8,13.4l-6,5.6
		H1135.9z M1242,328c7.2,0,14.4,0.3,21.6,0.8c7.2,0.5,12.7,1.1,16.4,1.6c-0.3-3.7-0.5-7.7-0.6-11.8c-0.1-4.1-0.2-8.2-0.2-12.2
		c-0.3-34.1-5.7-60.5-16.4-79c-10.7-18.5-24.7-27.8-42-27.8c-9.1,0-18,2.6-26.8,7.8s-16,12.7-21.6,22.4c-5.6,9.7-8.4,21.5-8.4,35.4
		c0,19.5,6.1,34.8,18.4,46c12.3,11.2,29.5,16.8,51.6,16.8H1242z"/>
	<path class="st1" d="M1435.6,328h18V41.1l10.8-1.6l1.2,3.2v190.9h169.3c13.6,0,26.1,2.9,37.4,8.8c11.3,5.9,20.3,13.9,27,24
		c6.7,10.1,10,21.7,10,34.8c0,6.1,0.2,11.4,0.6,15.8c0.4,4.4,0.9,8.1,1.4,11h20.4c3.2,0,5.3,0.5,6.4,1.6c1.1,1.1,1.6,2.5,1.6,4.4
		c0,1.9-0.5,3.3-1.6,4.4c-1.1,1.1-3.2,1.6-6.4,1.6h-300.1l-1.2-2.4L1435.6,328z M1697.3,301.2c0-10.4-2.7-19.8-8.2-28.2
		c-5.5-8.4-12.9-15.1-22.4-20c-9.5-4.9-20.1-7.4-31.8-7.4h-169.3V328h194.5c6.7,0,13.3,0.3,20,0.8c6.7,0.5,12,0.9,16,1.2v-2h2.8
		c-0.5-3.2-0.9-7-1.2-11.4C1697.5,312.2,1697.3,307,1697.3,301.2z"/>
	<path class="st1" d="M1791.4,153.9c-2.7,0-5-1-7-3c-2-2-3-4.3-3-7c0-2.9,1-5.3,3-7.2c2-1.9,4.3-2.8,7-2.8c2.9,0,5.3,0.9,7.2,2.8
		c1.9,1.9,2.8,4.3,2.8,7.2c0,2.7-0.9,5-2.8,7C1796.7,152.9,1794.3,153.9,1791.4,153.9z"/>
	<path class="st1" d="M1731.7,340c-2.7,0-4.7-0.7-6-2c-1.3-1.3-2-2.7-2-4c0-4,2.7-6,8-6h95.6c11.2,0,22.3,0.1,33.4,0.4
		c11.1,0.3,21,0.6,29.8,1c8.8,0.4,15.5,0.7,20,1c-22.4-9.3-43.6-21.5-63.6-36.4c-20-14.9-37.9-30.6-53.6-47
		c-15.7-16.4-28.4-31.7-38-45.8l7.6-6h2.8c8,11.7,18.1,24.1,30.2,37.2c12.1,13.1,25.7,25.9,40.8,38.6c15.1,12.7,31.3,24,48.6,34
		c17.3,10,35.2,17.7,53.6,23h14v2.8l-2.8,9.2H1731.7z"/>
</g>
</svg>
