<?xml version='1.0' encoding='ASCII'?>
<svg width="5550" height="6093" preserveAspectRatio="xMinYMin slice" viewBox="-65 0 5550 6093" version="1.1" xmlns="http://www.w3.org/2000/svg">
  <path d="M-65,0 v6093 h5485 v-6093 Z" fill="#0D0F17" transform="matrix(1,0,0,-1,0,6093)"/>
  <path d="M127,0 v745 l132,16 l3,-8.0636 v-752.9364 h-135 Z M93,119 h169 v-119 h-222 l-5,9 l58,110 Z M810,127 q0,26 -14.5,47.5 q-14.5,21.5 -39.5,34 q-25,12.5 -57,12.5 h-143 v11 l14,108 h129 q65,0 121,-27 q56,-27 90.5,-75 q34.5,-48 34.5,-111 h-135 Z M468,0 v119 h251 q25,0 49.5,-1.5 q24.5,-1.5 40.5,-3.5 q16,-2 16,-2 v-112 h-357 Z M822,0 q-5,34 -8.5,67.5 q-3.5,33.5 -3.5,59.5 h135 q0,-28 3.5,-59 q3.5,-31 7.5,-54 l-15,-14 h-119 Z M468,119 h169 v-119 h-222 l-5,9 l58,110 Z M570,340 h119 v-119 h-172 l-5,9 l58,110 Z M225,0 v119 h381 v-119 h-381 Z M225,221 v119 h381 v-119 h-381 Z" fill="#FFFFFF" transform="matrix(1,0,0,-1,-50,5993)"/>
  <path d="M195,0 l-135,1 v744 l132,16 l3,-8.0637 v-752.9363 Z M60,0 v119 h221 v-119 h-221 Z M281,0 v119 q12,0 16,-15.8667 q4,-15.8667 4,-42.84 q0,-25.3867 -4,-42.84 q-4,-17.4533 -16,-17.4533 Z" fill="#FFFFFF" transform="matrix(1,0,0,-1,956,5993)"/>
  <path d="M800,0 v119 h172 v-119 h-172 Z M972,0 v119 q12,0 16,-15.8667 q4,-15.8667 4,-42.84 q0,-25.3867 -4,-42.84 q-4,-17.4533 -16,-17.4533 Z M86,0 v745 l132,16 l3,-8.0636 v-752.9364 h-135 Z M52,119 h169 v-119 h-222 l-5,9 l58,110 Z M769,127 q0,26 -14.5,47.5 q-14.5,21.5 -39.5,34 q-25,12.5 -57,12.5 h-143 v11 l14,108 h129 q65,0 121,-27 q56,-27 90.5,-75 q34.5,-48 34.5,-111 h-135 Z M427,0 v119 h251 q25,0 49.5,-1.5 q24.5,-1.5 40.5,-3.5 q16,-2 16,-2 v-112 h-357 Z M781,0 q-5,34 -8.5,67.5 q-3.5,33.5 -3.5,59.5 h135 q0,-28 3.5,-59 q3.5,-31 7.5,-54 l-15,-14 h-119 Z M427,119 h169 v-119 h-222 l-5,9 l58,110 Z M529,340 h119 v-119 h-172 l-5,9 l58,110 Z M184,0 v119 h381 v-119 h-381 Z M184,221 v119 h381 v-119 h-381 Z M0,0 v119 h97 v-119 h-97 Z M0,0 q-11,0 -15.5,17.6579 q-4.5,17.6579 -4.5,43.3421 q0,26 4.5,42 q4.5,16 15.5,16 v-119 Z" fill="#FFFFFF" transform="matrix(1,0,0,-1,1237,5993)"/>
  <path d="M658,0 v119 h94 v-119 h-94 Z M752,0 v119 q12,0 16,-15.8667 q4,-15.8667 4,-42.84 q0,-25.3867 -4,-42.84 q-4,-17.4533 -16,-17.4533 Z M0,0 v119 h631 v-119 h-631 Z M95,0 l3,42 q0,0 -3,26 q-3,26 -6,71 q-3,45 -3,101 v11 l132,16 l3,-8 v-12 q0,-41 2.5,-82 q2.5,-41 5,-75.5 q2.5,-34.5 5,-55 q2.5,-20.5 2.5,-20.5 l-15,-14 h-126 Z M329,0 l3,42 q0,0 -3,32.5 q-3,32.5 -6,83.5 q-3,51 -3,107 v34 l132,16 l3,-8 v-60 q0,-41 2.5,-82 q2.5,-41 5,-75.5 q2.5,-34.5 5,-55 q2.5,-20.5 2.5,-20.5 l-15,-14 h-126 Z M563,0 l3,42 q0,0 -3,32.5 q-3,32.5 -6,83.5 q-3,51 -3,107 v81 l132,16 l3,-8 v-107 q0,-41 2.5,-82 q2.5,-41 5,-75.5 q2.5,-34.5 5,-55 q2.5,-20.5 2.5,-20.5 l-15,-14 h-126 Z M0,0 q-11,0 -15.5,17.6579 q-4.5,17.6579 -4.5,43.3421 q0,26 4.5,42 q4.5,16 15.5,16 v-119 Z" fill="#FFFFFF" transform="matrix(1,0,0,-1,2209,5993)"/>
  <path d="M56.8235,428 q-23.8235,0 -40.3235,16 q-16.5,16 -16.5,39.8235 q0,23.8235 16.6765,40.5 q16.6765,16.6765 40.5,16.6765 q23.8235,0 40.3235,-16.6765 q16.5,-16.6765 16.5,-40.5 q0,-23.8235 -16.6765,-39.8235 q-16.6765,-16 -40.5,-16 Z" fill="#FFFFFF" transform="matrix(1,0,0,-1,3157,5939)"/>
  <path d="M0,0 v119 h279 q16,0 30.5,-1 q14.5,-1 24.5,-2 q10,-1 10,-1 l-23,-19 q0,4 0,7 q0,3 0,7 q-2,78 -23.5,127 q-21.5,49 -47.5,49 q-10,0 -23,-8 q-13,-8 -22.5,-27.5 q-9.5,-19.5 -9.5,-52.5 q0,-42 20,-60.5 q20,-18.5 64,-18.5 v-87 q-67,0 -116.5,22 q-49.5,22 -76,62 q-26.5,40 -26.5,93 q0,57 25.5,101 q25.5,44 69.5,69.5 q44,25.5 98,25.5 q63,0 108.5,-38 q45.5,-38 70,-107 q24.5,-69 24.5,-164 q2,-36 3.5,-59 q1.5,-23 1.5,-23 l-15,-14 h-446 Z M0,0 q-11,0 -15.5,17.5 q-4.5,17.5 -4.5,43.5 q0,26 4.5,42 q4.5,16 15.5,16 v-119 Z" fill="#FFFFFF" transform="matrix(1,0,0,-1,2961,5993)"/>
  <path d="" fill="#FFFFFF" transform="matrix(1,0,0,-1,3472,5993)"/>
  <path d="M858,0 v119 h155 v-119 h-155 Z M1013,0 v119 q12,0 16,-15.8667 q4,-15.8667 4,-42.84 q0,-25.3867 -4,-42.84 q-4,-17.4533 -16,-17.4533 Z M127,0 v745 l132,16 l3,-8.0636 v-752.9364 h-135 Z M93,119 h169 v-119 h-222 l-5,9 l58,110 Z M810,127 q0,26 -14.5,47.5 q-14.5,21.5 -39.5,34 q-25,12.5 -57,12.5 h-143 v11 l14,108 h129 q65,0 121,-27 q56,-27 90.5,-75 q34.5,-48 34.5,-111 h-135 Z M468,0 v119 h251 q25,0 49.5,-1.5 q24.5,-1.5 40.5,-3.5 q16,-2 16,-2 v-112 h-357 Z M822,0 q-5,34 -8.5,67.5 q-3.5,33.5 -3.5,59.5 h135 q0,-28 3.5,-59 q3.5,-31 7.5,-54 l-15,-14 h-119 Z M468,119 h169 v-119 h-222 l-5,9 l58,110 Z M570,340 h119 v-119 h-172 l-5,9 l58,110 Z M225,0 v119 h381 v-119 h-381 Z M225,221 v119 h381 v-119 h-381 Z" fill="#FFFFFF" transform="matrix(1,0,0,-1,3672,5993)"/>
  <path d="M56.8235,428 q-23.8235,0 -40.3235,16 q-16.5,16 -16.5,39.8235 q0,23.8235 16.6765,40.5 q16.6765,16.6765 40.5,16.6765 q23.8235,0 40.3235,-16.6765 q16.5,-16.6765 16.5,-40.5 q0,-23.8235 -16.6765,-39.8235 q-16.6765,-16 -40.5,-16 Z" fill="#FFFFFF" transform="matrix(1,0,0,-1,4857,5912)"/>
  <path d="M594,13 q-71,14 -144.5,43.5 q-73.5,29.5 -144,71.5 q-70.5,42 -133,93 q-62.5,51 -110.5,108 l96,77 h7 q32,-40 79.5,-84.5 q47.5,-44.5 107.5,-86.5 q60,-42 128,-74.5 q68,-32.5 141,-47.5 l-27,-100 Z M0,0 v119 h188 q40,0 78,-1.5 q38,-1.5 63.5,-3.5 q25.5,-2 25.5,-2 l94,7 h201 v-7 l-34,-112 h-616 Z M0,0 q-11,0 -15.5,17.5 q-4.5,17.5 -4.5,43.5 q0,26 4.5,42 q4.5,16 15.5,16 v-119 Z" fill="#FFFFFF" transform="matrix(1,0,0,-1,4685,5993)"/>
  <path d="M124.6668,0 v745.3333 l112.0012,13.6668 l3,-8.0424 v-750.9578 h-115.0012 Z M87.667,104.3342 h152.001 v-104.3342 h-198.6681 l-4.3334,8.0001 l51.0004,96.3342 Z M784.6682,117.0006 q0,26 -14.5,47.5 q-14.5,21.5 -39.5,34 q-25,12.5 -57,12.5 h-145.3332 v11 l12.0001,93.3342 h133.3331 q60.3336,0 111.8339,-25.3334 q51.5003,-25.3334 82.8339,-70.0003 q31.3335,-44.6669 31.3335,-103.0005 h-115.0012 Z M442.6682,0 v104.3342 h251 q25,0 49.5,-1.5 q24.5,-1.5 40.5,-3.5 q16,-2 16,-2 v-97.3342 h-357 Z M795.6683,0 q-4.0001,27.0004 -7.5001,57.0006 q-3.5,30.0002 -3.5,60.0 h115.0012 q0,-29.6666 3.3334,-56.6668 q3.3333,-27.0002 6.6667,-46.3338 l-15,-14 h-99.0012 Z M442.6682,104.3342 h152.001 v-104.3342 h-198.6681 l-4.3334,8.0001 l51.0004,96.3342 Z M538.3353,315.3348 h118.6667 v-104.3342 h-165.3337 l-4.3334,8.0001 l51.0004,96.3342 Z M205.0012,0 v104.3342 h381 v-104.3342 h-381 Z M205.0012,211.0006 v104.3342 h381 v-104.3342 h-381 Z" fill="#FFFFFF" transform="matrix(1,0,0,-1,50,5132)"/>
  <path d="M178.3344,0 l-115.0012,1 v744.3333 l112.0012,13.6668 l3,-8.0424 v-750.9577 Z M63.3331,0 v104.3342 h201.0012 v-104.3342 h-201.0012 Z M264.3344,0 v104.3342 q12,0 16,-13.9112 q4,-13.9112 4,-37.5603 q0,-22.258 -4,-37.5603 q-4,-15.3024 -16,-15.3024 Z" fill="#FFFFFF" transform="matrix(1,0,0,-1,1011,5132)"/>
  <path d="M776.3348,0 v104.3342 h151.6679 v-104.3342 h-151.6679 Z M928.0027,0 v104.3342 q12,0 16,-13.9112 q4,-13.9112 4,-37.5603 q0,-22.258 -4,-37.5603 q-4,-15.3024 -16,-15.3024 Z M86,0 v745.3333 l112.0012,13.6668 l3,-8.0424 v-750.9578 h-115.0012 Z M49.0002,104.3342 h152.001 v-104.3342 h-198.6681 l-4.3334,8.0001 l51.0004,96.3342 Z M746.0014,117.0006 q0,26 -14.5,47.5 q-14.5,21.5 -39.5,34 q-25,12.5 -57,12.5 h-145.3332 v11 l12.0001,93.3342 h133.3331 q60.3336,0 111.8339,-25.3334 q51.5002,-25.3334 82.8337,-70.0003 q31.3336,-44.6669 31.3336,-103.0005 h-115.0012 Z M404.0014,0 v104.3342 h251 q25,0 49.5,-1.5 q24.5,-1.5 40.5,-3.5 q16,-2 16,-2 v-97.3342 h-357 Z M757.0015,0 q-4.0001,27.0004 -7.5001,57.0006 q-3.5,30.0002 -3.5,60.0 h115.0012 q0,-29.6666 3.3333,-56.6668 q3.3334,-27.0002 6.6667,-46.3338 l-15,-14 h-99.0012 Z M404.0014,104.3342 h152.001 v-104.3342 h-198.6681 l-4.3334,8.0001 l51.0004,96.3342 Z M499.6685,315.3348 h118.6667 v-104.3342 h-165.3337 l-4.3334,8.0001 l51.0004,96.3342 Z M166.3344,0 v104.3342 h381 v-104.3342 h-381 Z M166.3344,211.0006 v104.3342 h381 v-104.3342 h-381 Z M0,0 v104.3342 h92.0003 v-104.3342 h-92.0003 Z M0,0 q-11,0 -15.5,15.4387 q-4.5,15.4387 -4.5,37.8951 q0,23.0002 4.5,37.0003 q4.5,14.0001 15.5,14.0001 v-104.3342 Z" fill="#FFFFFF" transform="matrix(1,0,0,-1,1275,5132)"/>
  <path d="M631.335,0 v104.3342 h94 v-104.3342 h-94 Z M725.335,0 v104.3342 q12,0 16,-13.9112 q4,-13.9112 4,-37.5603 q0,-22.258 -4,-37.5603 q-4,-15.3024 -16,-15.3024 Z M0,0 v104.3342 h598.6686 v-104.3342 h-598.6686 Z M95,0 l3,42 q0,0 -3,27.9999 q-3,27.9999 -6,73.9998 q-3,45.9999 -3,99.3334 v10.0001 l112.0012,13.6668 l3,-8 v-16.9997 q0,-39.0001 2.5,-79.0002 q2.5,-40.0001 5,-74.0001 q2.5,-34.0 5,-54.5 q2.5,-20.5 2.5,-20.5 l-15,-14 h-106.0012 Z M322.3337,0 l3,42 q0,0 -3,32.5 q-3,32.5 -6,83.5 q-3,51 -3,107 v36.3332 l112.0012,13.6668 l3,-8 v-60 q0,-41 2.5,-82 q2.5,-41 5,-75.5 q2.5,-34.5 5,-55 q2.5,-20.5 2.5,-20.5 l-15,-14 h-106.0012 Z M549.6675,0 l3,42 q0,0 -3,32.5 q-3,32.5 -6,83.5 q-3,51 -3,107 v83.3332 l112.0012,13.6668 l3,-8 v-107 q0,-41 2.5,-82 q2.5,-41 5,-75.5 q2.5,-34.5 5,-55 q2.5,-20.5 2.5,-20.5 l-15,-14 h-106.0012 Z M0,0 q-11,0 -15.5,15.4387 q-4.5,15.4387 -4.5,37.8951 q0,23.0002 4.5,37.0003 q4.5,14.0001 15.5,14.0001 v-104.3342 Z" fill="#FFFFFF" transform="matrix(1,0,0,-1,2203,5132)"/>
  <path d="M53.8825,428 q-22.5491,0 -38.2158,15.3334 q-15.6667,15.3334 -15.6667,37.8825 q0,22.5491 15.7844,38.3335 q15.7844,15.7844 38.3335,15.7844 q22.5491,0 38.2158,-15.7844 q15.6667,-15.7844 15.6667,-38.3335 q0,-22.5491 -15.7844,-37.8825 q-15.7844,-15.3334 -38.3335,-15.3334 Z" fill="#FFFFFF" transform="matrix(1,0,0,-1,3121,5086)"/>
  <path d="M0,0 v104.3342 h273.3337 q18.9998,0 36.8329,-1.1667 q17.8331,-1.1667 29.833,-2.5 q11.9999,-1.3333 11.9999,-1.3333 l-22.0001,-12.6671 q0,4 0,7.3333 q0,3.3333 0,7.3333 q-1.6667,87.3328 -26.1665,139.3326 q-24.4998,51.9998 -59.8326,51.9998 q-15.6663,0 -32.1661,-10.1665 q-16.4998,-10.1665 -27.4997,-32.1664 q-10.9999,-21.9998 -10.9999,-56.3331 q0,-45.3331 24.1664,-67.4996 q24.1664,-22.1664 75.166,-22.1664 v-76.6673 q-69.6665,0 -117.6666,22.9999 q-48.0001,22.9999 -72.3336,62.9999 q-24.3335,40 -24.3335,90.0002 q0,56.3334 25.1667,99.6667 q25.1667,43.3334 68.1667,68.5001 q43.0001,25.1667 95.0002,25.1667 q62.6667,0 107.0001,-38.3333 q44.3334,-38.3333 67.8335,-106.6667 q23.5001,-68.3334 23.5001,-160.0002 q1.3334,-30.3337 2.6667,-52.3337 q1.3333,-22.0001 1.6667,-26.9998 l-12.3335,-12.6667 h-437.0005 Z M0,0 q-11,0 -15.5,15.3335 q-4.5,15.3335 -4.5,38.0003 q0,23.0002 4.5,37.0003 q4.5,14.0001 15.5,14.0001 v-104.3342 Z" fill="#FFFFFF" transform="matrix(1,0,0,-1,2928,5132)"/>
  <path d="" fill="#FFFFFF" transform="matrix(1,0,0,-1,3429,5132)"/>
  <path d="M825.002,0 v104.3342 h141.6675 v-104.3342 h-141.6675 Z M966.6695,0 v104.3342 q12,0 16,-13.9112 q4,-13.9112 4,-37.5603 q0,-22.258 -4,-37.5603 q-4,-15.3024 -16,-15.3024 Z M124.6668,0 v745.3333 l112.0012,13.6668 l3,-8.0424 v-750.9578 h-115.0012 Z M87.667,104.3342 h152.001 v-104.3342 h-198.6681 l-4.3334,8.0001 l51.0004,96.3342 Z M784.6682,117.0006 q0,26 -14.5,47.5 q-14.5,21.5 -39.5,34 q-25,12.5 -57,12.5 h-145.3332 v11 l12.0001,93.3342 h133.3331 q60.3336,0 111.8339,-25.3334 q51.5003,-25.3334 82.8339,-70.0003 q31.3335,-44.6669 31.3335,-103.0005 h-115.0012 Z M442.6682,0 v104.3342 h251 q25,0 49.5,-1.5 q24.5,-1.5 40.5,-3.5 q16,-2 16,-2 v-97.3342 h-357 Z M795.6683,0 q-4.0001,27.0004 -7.5001,57.0006 q-3.5,30.0002 -3.5,60.0 h115.0012 q0,-29.6666 3.3334,-56.6668 q3.3333,-27.0002 6.6667,-46.3338 l-15,-14 h-99.0012 Z M442.6682,104.3342 h152.001 v-104.3342 h-198.6681 l-4.3334,8.0001 l51.0004,96.3342 Z M538.3353,315.3348 h118.6667 v-104.3342 h-165.3337 l-4.3334,8.0001 l51.0004,96.3342 Z M205.0012,0 v104.3342 h381 v-104.3342 h-381 Z M205.0012,211.0006 v104.3342 h381 v-104.3342 h-381 Z" fill="#FFFFFF" transform="matrix(1,0,0,-1,3636,5132)"/>
  <path d="M53.8825,428 q-22.5491,0 -38.2158,15.3334 q-15.6667,15.3334 -15.6667,37.8825 q0,22.5491 15.7844,38.3335 q15.7844,15.7844 38.3335,15.7844 q22.5491,0 38.2158,-15.7844 q15.6667,-15.7844 15.6667,-38.3335 q0,-22.5491 -15.7844,-37.8825 q-15.7844,-15.3334 -38.3335,-15.3334 Z" fill="#FFFFFF" transform="matrix(1,0,0,-1,4761,5066)"/>
  <path d="M570.3348,10.0002 q-68.3335,14.9999 -139.0003,44.6666 q-70.6668,29.6667 -138.167,71.5 q-67.5002,41.8333 -127.5003,92.3334 q-60.0002,50.5 -106.6669,106.8334 l82.3342,66.0007 h7 q32,-39.6667 79.5,-84.3333 q47.5,-44.6667 107.3333,-86.6667 q59.8333,-42 128,-74.5 q68.1667,-32.5 141.1667,-47.5 l-33.9996,-88.334 Z M0,0 v104.3342 h214.9984 q35.0003,0 68.5006,-1.5 q33.5003,-1.5 55.8338,-3.5 q22.3335,-2 22.3335,-2 l94,7 h176.6682 v-7 l-29.6669,-97.3342 h-602.6675 Z M0,0 q-11,0 -15.5,15.3335 q-4.5,15.3335 -4.5,38.0003 q0,23.0002 4.5,37.0003 q4.5,14.0001 15.5,14.0001 v-104.3342 Z" fill="#FFFFFF" transform="matrix(1,0,0,-1,4603,5132)"/>
  <path d="M122.9168,0 v745.5833 l97.0012,11.9168 l3,-8.0265 v-749.4736 h-100.0012 Z M83.667,93.3342 h139.251 v-93.3342 h-181.1681 l-3.8334,7.2501 l45.7504,86.0842 Z M765.6682,109.5006 q0,26 -14.5,47.5 q-14.5,21.5 -39.5,34 q-25,12.5 -57,12.5 h-147.0832 v11 l10.5001,82.3342 h136.5831 q56.8336,0 104.9589,-24.0834 q48.1253,-24.0834 77.0839,-66.2503 q28.9585,-42.1669 28.9585,-97.0005 h-100.0012 Z M423.6682,0 v93.3342 h251 q25,0 49.5,-1.5 q24.5,-1.5 40.5,-3.5 q16,-2 16,-2 v-86.3342 h-357 Z M775.9183,0 q-3.2501,21.7504 -6.7501,49.1256 q-3.5,27.3752 -3.5,60.375 h100.0012 q0,-30.9166 3.2084,-54.9168 q3.2083,-24.0002 6.0417,-40.5838 l-15,-14 h-84.0012 Z M423.6682,93.3342 h139.251 v-93.3342 h-181.1681 l-3.8334,7.2501 l45.7504,86.0842 Z M514.5853,296.8348 h118.4167 v-93.3342 h-160.3337 l-3.8334,7.2501 l45.7504,86.0842 Z M190.0012,0 v93.3342 h381 v-93.3342 h-381 Z M190.0012,203.5006 v93.3342 h381 v-93.3342 h-381 Z" fill="#FFFFFF" transform="matrix(1,0,0,-1,124,4273)"/>
  <path d="M165.8344,0 l-100.0012,1 v744.5833 l97.0012,11.9168 l3,-8.0266 v-749.4736 Z M65.8331,0 v93.3342 h186.0012 v-93.3342 h-186.0012 Z M251.8344,0 v93.3342 q12,0 16,-12.4446 q4,-12.4446 4,-33.6003 q0,-19.9113 -4,-33.6003 q-4,-13.689 -16,-13.689 Z" fill="#FFFFFF" transform="matrix(1,0,0,-1,1052,4273)"/>
  <path d="M758.5848,0 v93.3342 h136.4179 v-93.3342 h-136.4179 Z M895.0027,0 v93.3342 q12,0 16,-12.4446 q4,-12.4446 4,-33.6003 q0,-19.9113 -4,-33.6003 q-4,-13.689 -16,-13.689 Z M86,0 v745.5833 l97.0012,11.9168 l3,-8.0265 v-749.4736 h-100.0012 Z M46.7502,93.3342 h139.251 v-93.3342 h-181.1681 l-3.8334,7.2501 l45.7504,86.0842 Z M728.7514,109.5006 q0,26 -14.5,47.5 q-14.5,21.5 -39.5,34 q-25,12.5 -57,12.5 h-147.0832 v11 l10.5001,82.3342 h136.5831 q56.8336,0 104.9589,-24.0834 q48.1252,-24.0834 77.0837,-66.2503 q28.9586,-42.1669 28.9586,-97.0005 h-100.0012 Z M386.7514,0 v93.3342 h251 q25,0 49.5,-1.5 q24.5,-1.5 40.5,-3.5 q16,-2 16,-2 v-86.3342 h-357 Z M739.0015,0 q-3.2501,21.7504 -6.7501,49.1256 q-3.5,27.3752 -3.5,60.375 h100.0012 q0,-30.9166 3.2083,-54.9168 q3.2084,-24.0002 6.0417,-40.5838 l-15,-14 h-84.0012 Z M386.7514,93.3342 h139.251 v-93.3342 h-181.1681 l-3.8334,7.2501 l45.7504,86.0842 Z M477.6685,296.8348 h118.4167 v-93.3342 h-160.3337 l-3.8334,7.2501 l45.7504,86.0842 Z M153.0844,0 v93.3342 h381 v-93.3342 h-381 Z M153.0844,203.5006 v93.3342 h381 v-93.3342 h-381 Z M0,0 v93.3342 h88.2503 v-93.3342 h-88.2503 Z M0,0 q-11,0 -15.5,13.7743 q-4.5,13.7743 -4.5,33.8095 q0,20.7502 4.5,33.2503 q4.5,12.5001 15.5,12.5001 v-93.3342 Z" fill="#FFFFFF" transform="matrix(1,0,0,-1,1304,4273)"/>
  <path d="M611.335,0 v93.3342 h94 v-93.3342 h-94 Z M705.335,0 v93.3342 q12,0 16,-12.4446 q4,-12.4446 4,-33.6003 q0,-19.9113 -4,-33.6003 q-4,-13.689 -16,-13.689 Z M0,0 v93.3342 h574.4186 v-93.3342 h-574.4186 Z M95,0 l3,42 q0,0 -3,29.4999 q-3,29.4999 -6,76.2498 q-3,46.7499 -3,98.0834 v9.2501 l97.0012,11.9168 l3,-8 v-20.7497 q0,-37.5001 2.5,-76.7502 q2.5,-39.2501 5,-72.8751 q2.5,-33.625 5,-54.125 q2.5,-20.5 2.5,-20.5 l-15,-14 h-91.0012 Z M317.3337,0 l3,42 q0,0 -3,32.5 q-3,32.5 -6,83.5 q-3,51 -3,107 v38.0832 l97.0012,11.9168 l3,-8 v-60 q0,-41 2.5,-82 q2.5,-41 5,-75.5 q2.5,-34.5 5,-55 q2.5,-20.5 2.5,-20.5 l-15,-14 h-91.0012 Z M539.6675,0 l3,42 q0,0 -3,32.5 q-3,32.5 -6,83.5 q-3,51 -3,107 v85.0832 l97.0012,11.9168 l3,-8 v-107 q0,-41 2.5,-82 q2.5,-41 5,-75.5 q2.5,-34.5 5,-55 q2.5,-20.5 2.5,-20.5 l-15,-14 h-91.0012 Z M0,0 q-11,0 -15.5,13.7743 q-4.5,13.7743 -4.5,33.8095 q0,20.7502 4.5,33.2503 q4.5,12.5001 15.5,12.5001 v-93.3342 Z" fill="#FFFFFF" transform="matrix(1,0,0,-1,2199,4273)"/>
  <path d="M51.6767,428 q-21.5932,0 -36.6349,14.8334 q-15.0417,14.8334 -15.0417,36.4266 q0,21.5932 15.1153,36.7085 q15.1153,15.1152 36.7085,15.1152 q21.5932,0 36.6349,-15.1152 q15.0417,-15.1153 15.0417,-36.7085 q0,-21.5932 -15.1152,-36.4266 q-15.1152,-14.8334 -36.7085,-14.8334 Z" fill="#FFFFFF" transform="matrix(1,0,0,-1,3094,4233)"/>
  <path d="M0,0 v93.3342 h269.0837 q21.2498,0 41.5829,-1.2917 q20.3331,-1.2917 33.833,-2.875 q13.4999,-1.5833 13.4999,-1.5833 l-21.2501,-7.9171 q0,4 0,7.5833 q0,3.5833 0,7.5833 q-1.4167,94.3328 -28.1665,148.5826 q-26.7498,54.2498 -69.0826,54.2498 q-19.9163,0 -39.0411,-11.7915 q-19.1248,-11.7915 -31.2497,-35.6664 q-12.1249,-23.8748 -12.1249,-59.2081 q0,-47.8331 27.2914,-72.7496 q27.2914,-24.9164 83.541,-24.9164 v-68.9173 q-71.6665,0 -118.5416,23.7499 q-46.8751,23.7499 -69.5836,63.7499 q-22.7085,40 -22.7085,87.7502 q0,55.8334 24.9167,98.6667 q24.9167,42.8334 67.1667,67.7501 q42.2501,24.9167 92.7502,24.9167 q62.4167,0 105.8751,-38.5833 q43.4584,-38.5833 66.2085,-106.4167 q22.7501,-67.8334 22.7501,-157.0002 q0.8334,-26.0837 2.0417,-47.3337 q1.2083,-21.2501 1.7917,-29.9998 l-10.3335,-11.6667 h-430.2505 Z M0,0 q-11,0 -15.5,13.7085 q-4.5,13.7085 -4.5,33.8753 q0,20.7502 4.5,33.2503 q4.5,12.5001 15.5,12.5001 v-93.3342 Z" fill="#FFFFFF" transform="matrix(1,0,0,-1,2904,4273)"/>
  <path d="" fill="#FFFFFF" transform="matrix(1,0,0,-1,3398,4273)"/>
  <path d="M800.252,0 v93.3342 h131.6675 v-93.3342 h-131.6675 Z M931.9195,0 v93.3342 q12,0 16,-12.4446 q4,-12.4446 4,-33.6003 q0,-19.9113 -4,-33.6003 q-4,-13.689 -16,-13.689 Z M122.9168,0 v745.5833 l97.0012,11.9168 l3,-8.0265 v-749.4736 h-100.0012 Z M83.667,93.3342 h139.251 v-93.3342 h-181.1681 l-3.8334,7.2501 l45.7504,86.0842 Z M765.6682,109.5006 q0,26 -14.5,47.5 q-14.5,21.5 -39.5,34 q-25,12.5 -57,12.5 h-147.0832 v11 l10.5001,82.3342 h136.5831 q56.8336,0 104.9589,-24.0834 q48.1253,-24.0834 77.0839,-66.2503 q28.9585,-42.1669 28.9585,-97.0005 h-100.0012 Z M423.6682,0 v93.3342 h251 q25,0 49.5,-1.5 q24.5,-1.5 40.5,-3.5 q16,-2 16,-2 v-86.3342 h-357 Z M775.9183,0 q-3.2501,21.7504 -6.7501,49.1256 q-3.5,27.3752 -3.5,60.375 h100.0012 q0,-30.9166 3.2084,-54.9168 q3.2083,-24.0002 6.0417,-40.5838 l-15,-14 h-84.0012 Z M423.6682,93.3342 h139.251 v-93.3342 h-181.1681 l-3.8334,7.2501 l45.7504,86.0842 Z M514.5853,296.8348 h118.4167 v-93.3342 h-160.3337 l-3.8334,7.2501 l45.7504,86.0842 Z M190.0012,0 v93.3342 h381 v-93.3342 h-381 Z M190.0012,203.5006 v93.3342 h381 v-93.3342 h-381 Z" fill="#FFFFFF" transform="matrix(1,0,0,-1,3610,4273)"/>
  <path d="M51.6767,428 q-21.5932,0 -36.6349,14.8334 q-15.0417,14.8334 -15.0417,36.4266 q0,21.5932 15.1153,36.7085 q15.1153,15.1152 36.7085,15.1152 q21.5932,0 36.6349,-15.1152 q15.0417,-15.1153 15.0417,-36.7085 q0,-21.5932 -15.1152,-36.4266 q-15.1152,-14.8334 -36.7085,-14.8334 Z" fill="#FFFFFF" transform="matrix(1,0,0,-1,4690,4218)"/>
  <path d="M552.5848,7.7502 q-66.3335,15.7499 -134.8753,45.5416 q-68.5418,29.7917 -133.792,71.5 q-65.2502,41.7083 -123.3753,91.8334 q-58.1252,50.125 -103.7919,105.9584 l72.0842,57.7507 h7 q32,-39.4167 79.5,-84.2083 q47.5,-44.7917 107.2083,-86.7917 q59.7083,-42 128,-74.5 q68.2917,-32.5 141.2917,-47.5 l-39.2496,-79.584 Z M0,0 v93.3342 h235.2484 q31.2503,0 61.3756,-1.5 q30.1253,-1.5 50.0838,-3.5 q19.9585,-2 19.9585,-2 l94,7 h158.4182 v-7 l-26.4169,-86.3342 h-592.6675 Z M0,0 q-11,0 -15.5,13.7085 q-4.5,13.7085 -4.5,33.8753 q0,20.7502 4.5,33.2503 q4.5,12.5001 15.5,12.5001 v-93.3342 Z" fill="#FFFFFF" transform="matrix(1,0,0,-1,4542,4273)"/>
  <path d="M121.1668,0 v745.8333 l82.0012,10.1668 l3,-8.0106 v-747.9895 h-85.0012 Z M79.667,82.3342 h126.501 v-82.3342 h-163.6681 l-3.3334,6.5001 l40.5004,75.8342 Z M746.6682,102.0006 q0,26 -14.5,47.5 q-14.5,21.5 -39.5,34 q-25,12.5 -57,12.5 h-148.8332 v11 l9.0001,71.3342 h139.8331 q53.3336,0 98.0839,-22.8334 q44.7503,-22.8334 71.3339,-62.5003 q26.5835,-39.6669 26.5835,-91.0005 h-85.0012 Z M404.6682,0 v82.3342 h251 q25,0 49.5,-1.5 q24.5,-1.5 40.5,-3.5 q16,-2 16,-2 v-75.3342 h-357 Z M756.1683,0 q-2.5001,16.5004 -6.0001,41.2506 q-3.5,24.7502 -3.5,60.75 h85.0012 q0,-32.1666 3.0834,-53.1668 q3.0833,-21.0002 5.4167,-34.8338 l-15,-14 h-69.0012 Z M404.6682,82.3342 h126.501 v-82.3342 h-163.6681 l-3.3334,6.5001 l40.5004,75.8342 Z M490.8353,278.3348 h118.1667 v-82.3342 h-155.3337 l-3.3334,6.5001 l40.5004,75.8342 Z M175.0012,0 v82.3342 h381 v-82.3342 h-381 Z M175.0012,196.0006 v82.3342 h381 v-82.3342 h-381 Z" fill="#FFFFFF" transform="matrix(1,0,0,-1,199.5,3415)"/>
  <path d="M153.3344,0 l-85.0012,1 v744.8333 l82.0012,10.1668 l3,-8.0106 v-747.9895 Z M68.3331,0 v82.3342 h171.0012 v-82.3342 h-171.0012 Z M239.3344,0 v82.3342 q12,0 16,-10.9779 q4,-10.9779 4,-29.6403 q0,-17.5646 -4,-29.6403 q-4,-12.0757 -16,-12.0757 Z" fill="#FFFFFF" transform="matrix(1,0,0,-1,1093.5,3415)"/>
  <path d="M740.8348,0 v82.3342 h121.1679 v-82.3342 h-121.1679 Z M862.0027,0 v82.3342 q12,0 16,-10.9779 q4,-10.9779 4,-29.6403 q0,-17.5646 -4,-29.6403 q-4,-12.0757 -16,-12.0757 Z M86,0 v745.8333 l82.0012,10.1668 l3,-8.0106 v-747.9895 h-85.0012 Z M44.5002,82.3342 h126.501 v-82.3342 h-163.6681 l-3.3334,6.5001 l40.5004,75.8342 Z M711.5014,102.0006 q0,26 -14.5,47.5 q-14.5,21.5 -39.5,34 q-25,12.5 -57,12.5 h-148.8332 v11 l9.0001,71.3342 h139.8331 q53.3336,0 98.0839,-22.8334 q44.7502,-22.8334 71.3337,-62.5003 q26.5836,-39.6669 26.5836,-91.0005 h-85.0012 Z M369.5014,0 v82.3342 h251 q25,0 49.5,-1.5 q24.5,-1.5 40.5,-3.5 q16,-2 16,-2 v-75.3342 h-357 Z M721.0015,0 q-2.5001,16.5004 -6.0001,41.2506 q-3.5,24.7502 -3.5,60.75 h85.0012 q0,-32.1666 3.0833,-53.1668 q3.0834,-21.0002 5.4167,-34.8338 l-15,-14 h-69.0012 Z M369.5014,82.3342 h126.501 v-82.3342 h-163.6681 l-3.3334,6.5001 l40.5004,75.8342 Z M455.6685,278.3348 h118.1667 v-82.3342 h-155.3337 l-3.3334,6.5001 l40.5004,75.8342 Z M139.8344,0 v82.3342 h381 v-82.3342 h-381 Z M139.8344,196.0006 v82.3342 h381 v-82.3342 h-381 Z M0,0 v82.3342 h84.5003 v-82.3342 h-84.5003 Z M0,0 q-11,0 -15.5,12.1098 q-4.5,12.1098 -4.5,29.724 q0,18.5002 4.5,29.5003 q4.5,11.0001 15.5,11.0001 v-82.3342 Z" fill="#FFFFFF" transform="matrix(1,0,0,-1,1332.5,3415)"/>
  <path d="M591.335,0 v82.3342 h94 v-82.3342 h-94 Z M685.335,0 v82.3342 q12,0 16,-10.9779 q4,-10.9779 4,-29.6403 q0,-17.5646 -4,-29.6403 q-4,-12.0757 -16,-12.0757 Z M0,0 v82.3342 h550.1686 v-82.3342 h-550.1686 Z M95,0 l3,42 q0,0 -3,30.9999 q-3,30.9999 -6,78.4998 q-3,47.4999 -3,96.8334 v8.5001 l82.0012,10.1668 l3,-8 v-24.4997 q0,-36.0001 2.5,-74.5002 q2.5,-38.5001 5,-71.7501 q2.5,-33.25 5,-53.75 q2.5,-20.5 2.5,-20.5 l-15,-14 h-76.0012 Z M312.3337,0 l3,42 q0,0 -3,32.5 q-3,32.5 -6,83.5 q-3,51 -3,107 v39.8332 l82.0012,10.1668 l3,-8 v-60 q0,-41 2.5,-82 q2.5,-41 5,-75.5 q2.5,-34.5 5,-55 q2.5,-20.5 2.5,-20.5 l-15,-14 h-76.0012 Z M529.6675,0 l3,42 q0,0 -3,32.5 q-3,32.5 -6,83.5 q-3,51 -3,107 v86.8332 l82.0012,10.1668 l3,-8 v-107 q0,-41 2.5,-82 q2.5,-41 5,-75.5 q2.5,-34.5 5,-55 q2.5,-20.5 2.5,-20.5 l-15,-14 h-76.0012 Z M0,0 q-11,0 -15.5,12.1098 q-4.5,12.1098 -4.5,29.724 q0,18.5002 4.5,29.5003 q4.5,11.0001 15.5,11.0001 v-82.3342 Z" fill="#FFFFFF" transform="matrix(1,0,0,-1,2194.5,3415)"/>
  <path d="M49.4708,428 q-20.6373,0 -35.0541,14.3334 q-14.4167,14.3334 -14.4167,34.9707 q0,20.6373 14.4461,35.0835 q14.4461,14.4461 35.0835,14.4461 q20.6373,0 35.0541,-14.4461 q14.4167,-14.4462 14.4167,-35.0835 q0,-20.6373 -14.4461,-34.9707 q-14.4461,-14.3334 -35.0835,-14.3334 Z" fill="#FFFFFF" transform="matrix(1,0,0,-1,3066.5,3381)"/>
  <path d="M0,0 v82.3342 h264.8337 q23.4998,0 46.3329,-1.4167 q22.8331,-1.4167 37.833,-3.25 q14.9999,-1.8333 14.9999,-1.8333 l-20.5001,-3.1671 q0,4 0,7.8333 q0,3.8333 0,7.8333 q-1.1667,101.3328 -30.1665,157.8326 q-28.9998,56.4998 -78.3326,56.4998 q-24.1663,0 -45.9161,-13.4165 q-21.7498,-13.4165 -34.9997,-39.1664 q-13.2499,-25.7498 -13.2499,-62.0831 q0,-50.3331 30.4164,-77.9996 q30.4164,-27.6664 91.916,-27.6664 v-61.1673 q-73.6665,0 -119.4166,24.4999 q-45.7501,24.4999 -66.8336,64.4999 q-21.0835,40 -21.0835,85.5002 q0,55.3334 24.6667,97.6667 q24.6667,42.3334 66.1667,67.0001 q41.5001,24.6667 90.5002,24.6667 q62.1667,0 104.7501,-38.8333 q42.5834,-38.8333 64.5835,-106.1667 q22.0001,-67.3334 22.0001,-154.0002 q0.3334,-21.8337 1.4167,-42.3337 q1.0833,-20.5001 1.9167,-32.9998 l-8.3335,-10.6667 h-423.5005 Z M0,0 q-11,0 -15.5,12.0835 q-4.5,12.0835 -4.5,29.7503 q0,18.5002 4.5,29.5003 q4.5,11.0001 15.5,11.0001 v-82.3342 Z" fill="#FFFFFF" transform="matrix(1,0,0,-1,2879.5,3415)"/>
  <path d="" fill="#FFFFFF" transform="matrix(1,0,0,-1,3365.5,3415)"/>
  <path d="M775.502,0 v82.3342 h121.6675 v-82.3342 h-121.6675 Z M897.1695,0 v82.3342 q12,0 16,-10.9779 q4,-10.9779 4,-29.6403 q0,-17.5646 -4,-29.6403 q-4,-12.0757 -16,-12.0757 Z M121.1668,0 v745.8333 l82.0012,10.1668 l3,-8.0106 v-747.9895 h-85.0012 Z M79.667,82.3342 h126.501 v-82.3342 h-163.6681 l-3.3334,6.5001 l40.5004,75.8342 Z M746.6682,102.0006 q0,26 -14.5,47.5 q-14.5,21.5 -39.5,34 q-25,12.5 -57,12.5 h-148.8332 v11 l9.0001,71.3342 h139.8331 q53.3336,0 98.0839,-22.8334 q44.7503,-22.8334 71.3339,-62.5003 q26.5835,-39.6669 26.5835,-91.0005 h-85.0012 Z M404.6682,0 v82.3342 h251 q25,0 49.5,-1.5 q24.5,-1.5 40.5,-3.5 q16,-2 16,-2 v-75.3342 h-357 Z M756.1683,0 q-2.5001,16.5004 -6.0001,41.2506 q-3.5,24.7502 -3.5,60.75 h85.0012 q0,-32.1666 3.0834,-53.1668 q3.0833,-21.0002 5.4167,-34.8338 l-15,-14 h-69.0012 Z M404.6682,82.3342 h126.501 v-82.3342 h-163.6681 l-3.3334,6.5001 l40.5004,75.8342 Z M490.8353,278.3348 h118.1667 v-82.3342 h-155.3337 l-3.3334,6.5001 l40.5004,75.8342 Z M175.0012,0 v82.3342 h381 v-82.3342 h-381 Z M175.0012,196.0006 v82.3342 h381 v-82.3342 h-381 Z" fill="#FFFFFF" transform="matrix(1,0,0,-1,3582.5,3415)"/>
  <path d="M49.4708,428 q-20.6373,0 -35.0541,14.3334 q-14.4167,14.3334 -14.4167,34.9707 q0,20.6373 14.4461,35.0835 q14.4461,14.4461 35.0835,14.4461 q20.6373,0 35.0541,-14.4461 q14.4167,-14.4462 14.4167,-35.0835 q0,-20.6373 -14.4461,-34.9707 q-14.4461,-14.3334 -35.0835,-14.3334 Z" fill="#FFFFFF" transform="matrix(1,0,0,-1,4616.5,3371)"/>
  <path d="M534.8348,5.5002 q-64.3335,16.4999 -130.7503,46.4166 q-66.4168,29.9167 -129.417,71.5 q-63.0002,41.5833 -119.2503,91.3334 q-56.2502,49.75 -100.9169,105.0834 l61.8342,49.5007 h7 q32,-39.1667 79.5,-84.0833 q47.5,-44.9167 107.0833,-86.9167 q59.5833,-42 128,-74.5 q68.4167,-32.5 141.4167,-47.5 l-44.4996,-70.834 Z M0,0 v82.3342 h255.4984 q27.5003,0 54.2506,-1.5 q26.7503,-1.5 44.3338,-3.5 q17.5835,-2 17.5835,-2 l94,7 h140.1682 v-7 l-23.1669,-75.3342 h-582.6675 Z M0,0 q-11,0 -15.5,12.0835 q-4.5,12.0835 -4.5,29.7503 q0,18.5002 4.5,29.5003 q4.5,11.0001 15.5,11.0001 v-82.3342 Z" fill="#FFFFFF" transform="matrix(1,0,0,-1,4479.5,3415)"/>
  <path d="M120,0 v746 l72,9 l3,-8 v-747 h-75 Z M77,75 h118 v-75 h-152 l-3,6 l37,69 Z M734,97 q0,26 -14.5,47.5 q-14.5,21.5 -39.5,34 q-25,12.5 -57,12.5 h-150 v11 l8,64 h142 q51,0 93.5,-22 q42.5,-22 67.5,-60 q25,-38 25,-87 h-75 Z M392,0 v75 h251 q25,0 49.5,-1.5 q24.5,-1.5 40.5,-3.5 q16,-2 16,-2 v-68 h-357 Z M743,0 q-2,13 -5.5,36 q-3.5,23 -3.5,61 h75 q0,-33 3,-52 q3,-19 5,-31 l-15,-14 h-59 Z M392,75 h118 v-75 h-152 l-3,6 l37,69 Z M475,266 h118 v-75 h-152 l-3,6 l37,69 Z M165,0 v75 h381 v-75 h-381 Z M165,191 v75 h381 v-75 h-381 Z" fill="#FFFFFF" transform="matrix(1,0,0,-1,249,2559)"/>
  <path d="M145,0 l-75,1 v745 l72,9 l3,-8 v-747 Z M70,0 v75 h161 v-75 h-161 Z M231,0 v75 q12,0 16,-10 q4,-10 4,-27 q0,-16 -4,-27 q-4,-11 -16,-11 Z" fill="#FFFFFF" transform="matrix(1,0,0,-1,1121,2559)"/>
  <path d="M729,0 v75 h111 v-75 h-111 Z M840,0 v75 q12,0 16,-10 q4,-10 4,-27 q0,-16 -4,-27 q-4,-11 -16,-11 Z M86,0 v746 l72,9 l3,-8 v-747 h-75 Z M43,75 h118 v-75 h-152 l-3,6 l37,69 Z M700,97 q0,26 -14.5,47.5 q-14.5,21.5 -39.5,34 q-25,12.5 -57,12.5 h-150 v11 l8,64 h142 q51,0 93.5,-22 q42.5,-22 67.5,-60 q25,-38 25,-87 h-75 Z M358,0 v75 h251 q25,0 49.5,-1.5 q24.5,-1.5 40.5,-3.5 q16,-2 16,-2 v-68 h-357 Z M709,0 q-2,13 -5.5,36 q-3.5,23 -3.5,61 h75 q0,-33 3,-52 q3,-19 5,-31 l-15,-14 h-59 Z M358,75 h118 v-75 h-152 l-3,6 l37,69 Z M441,266 h118 v-75 h-152 l-3,6 l37,69 Z M131,0 v75 h381 v-75 h-381 Z M131,191 v75 h381 v-75 h-381 Z M0,0 v75 h82 v-75 h-82 Z M0,0 q-11,0 -15.5,11 q-4.5,11 -4.5,27 q0,17 4.5,27 q4.5,10 15.5,10 v-75 Z" fill="#FFFFFF" transform="matrix(1,0,0,-1,1352,2559)"/>
  <path d="M578,0 v75 h94 v-75 h-94 Z M672,0 v75 q12,0 16,-10 q4,-10 4,-27 q0,-16 -4,-27 q-4,-11 -16,-11 Z M0,0 v75 h534 v-75 h-534 Z M95,0 l3,42 q0,0 -3,32 q-3,32 -6,80 q-3,48 -3,96 v8 l72,9 l3,-8 v-27 q0,-35 2.5,-73 q2.5,-38 5,-71 q2.5,-33 5,-53.5 q2.5,-20.5 2.5,-20.5 l-15,-14 h-66 Z M309,0 l3,42 q0,0 -3,32.5 q-3,32.5 -6,83.5 q-3,51 -3,107 v41 l72,9 l3,-8 v-60 q0,-41 2.5,-82 q2.5,-41 5,-75.5 q2.5,-34.5 5,-55 q2.5,-20.5 2.5,-20.5 l-15,-14 h-66 Z M523,0 l3,42 q0,0 -3,32.5 q-3,32.5 -6,83.5 q-3,51 -3,107 v88 l72,9 l3,-8 v-107 q0,-41 2.5,-82 q2.5,-41 5,-75.5 q2.5,-34.5 5,-55 q2.5,-20.5 2.5,-20.5 l-15,-14 h-66 Z M0,0 q-11,0 -15.5,11 q-4.5,11 -4.5,27 q0,17 4.5,27 q4.5,10 15.5,10 v-75 Z" fill="#FFFFFF" transform="matrix(1,0,0,-1,2192,2559)"/>
  <path d="M48,428 q-20,0 -34,14 q-14,14 -14,34 q0,20 14,34 q14,14 34,14 q20,0 34,-14 q14,-14 14,-34 q0,-20 -14,-34 q-14,-14 -34,-14 Z" fill="#FFFFFF" transform="matrix(1,0,0,-1,3050,2529)"/>
  <path d="M0,0 v75 h262 q25,0 49.5,-1.5 q24.5,-1.5 40.5,-3.5 q16,-2 16,-2 h-20 q0,4 0,8 q0,4 0,8 q-1,106 -31.5,164 q-30.5,58 -84.5,58 q-27,0 -50.5,-14.5 q-23.5,-14.5 -37.5,-41.5 q-14,-27 -14,-64 q0,-52 32.5,-81.5 q32.5,-29.5 97.5,-29.5 v-56 q-75,0 -120,25 q-45,25 -65,65 q-20,40 -20,84 q0,55 24.5,97 q24.5,42 65.5,66.5 q41,24.5 89,24.5 q62,0 104,-39 q42,-39 63.5,-106 q21.5,-67 21.5,-152 q0,-19 1,-39 q1,-20 2,-35 l-7,-10 h-419 Z M0,0 q-11,0 -15.5,11 q-4.5,11 -4.5,27 q0,17 4.5,27 q4.5,10 15.5,10 v-75 Z" fill="#FFFFFF" transform="matrix(1,0,0,-1,2864,2559)"/>
  <path d="" fill="#FFFFFF" transform="matrix(1,0,0,-1,3345,2559)"/>
  <path d="M759,0 v75 h115 v-75 h-115 Z M874,0 v75 q12,0 16,-10 q4,-10 4,-27 q0,-16 -4,-27 q-4,-11 -16,-11 Z M120,0 v746 l72,9 l3,-8 v-747 h-75 Z M77,75 h118 v-75 h-152 l-3,6 l37,69 Z M734,97 q0,26 -14.5,47.5 q-14.5,21.5 -39.5,34 q-25,12.5 -57,12.5 h-150 v11 l8,64 h142 q51,0 93.5,-22 q42.5,-22 67.5,-60 q25,-38 25,-87 h-75 Z M392,0 v75 h251 q25,0 49.5,-1.5 q24.5,-1.5 40.5,-3.5 q16,-2 16,-2 v-68 h-357 Z M743,0 q-2,13 -5.5,36 q-3.5,23 -3.5,61 h75 q0,-33 3,-52 q3,-19 5,-31 l-15,-14 h-59 Z M392,75 h118 v-75 h-152 l-3,6 l37,69 Z M475,266 h118 v-75 h-152 l-3,6 l37,69 Z M165,0 v75 h381 v-75 h-381 Z M165,191 v75 h381 v-75 h-381 Z" fill="#FFFFFF" transform="matrix(1,0,0,-1,3565,2559)"/>
  <path d="M48,428 q-20,0 -34,14 q-14,14 -14,34 q0,20 14,34 q14,14 34,14 q20,0 34,-14 q14,-14 14,-34 q0,-20 -14,-34 q-14,-14 -34,-14 Z" fill="#FFFFFF" transform="matrix(1,0,0,-1,4570,2522)"/>
  <path d="M523,4 q-63,17 -128,47 q-65,30 -126.5,71.5 q-61.5,41.5 -116.5,91 q-55,49.5 -99,104.5 l55,44 h7 q32,-39 79.5,-84 q47.5,-45 107,-87 q59.5,-42 128,-74.5 q68.5,-32.5 141.5,-47.5 l-48,-65 Z M0,0 v75 h269 q25,0 49.5,-1.5 q24.5,-1.5 40.5,-3.5 q16,-2 16,-2 l94,7 h128 v-7 l-21,-68 h-576 Z M0,0 q-11,0 -15.5,11 q-4.5,11 -4.5,27 q0,17 4.5,27 q4.5,10 15.5,10 v-75 Z" fill="#FFFFFF" transform="matrix(1,0,0,-1,4439,2559)"/>
  <path d="M112.4442,0 v746.4445 l51.9994,6.7777 l3,-7.9811 v-745.241 h-54.9994 Z M68.5553,54.9994 h110.8887 v-54.9994 h-134.2217 l-3,6 l26.333,48.9994 Z M724.2219,97 q0,31.778 -17.1921,57.7748 q-17.1921,25.9969 -46.8336,41.1113 q-29.6415,15.1145 -66.975,15.1145 h-135.3329 v11 l5.3333,43.9994 h129.9996 q51,0 93.5,-22 q42.5,-22 67.5,-60 q25,-38 25,-87 h-54.9994 Z M381.333,0 v54.9994 h251 q25,0 49.5,-1.5 q24.5,-1.5 40.5,-3.5 q16,-2 16,-2 v-47.9994 h-357 Z M733.2219,0 q-2,13 -5.5,36 q-3.5,23 -3.5,61 h54.9994 q0,-33 3,-52 q3,-19 5,-31 l-15,-14 h-38.9994 Z M381.333,54.9994 h110.8887 v-54.9994 h-134.2217 l-3,6 l26.333,48.9994 Z M459.8884,266 h110.8887 v-54.9994 h-134.2217 l-3,6 l26.333,48.9994 Z M149.444,0 v54.9994 h381 v-54.9994 h-381 Z M149.444,211.0006 v54.9994 h381 v-54.9994 h-381 Z" fill="#FFFFFF" transform="matrix(1,0,0,-1,345,1704)"/>
  <path d="M129.444,0 l-54.9994,1 v745.4445 l51.9994,6.7777 l3,-7.9811 v-745.241 Z M74.4446,0 v54.9994 h140.9994 v-54.9994 h-140.9994 Z M215.444,0 v54.9994 q12,0 16,-7.4003 q4,-7.4003 4,-19.9809 q0,-11.8405 -4,-19.7293 q-4,-7.8888 -16,-7.8888 Z" fill="#FFFFFF" transform="matrix(1,0,0,-1,1189,1704)"/>
  <path d="M714.3329,0 v54.9994 h99.4441 v-54.9994 h-99.4441 Z M813.777,0 v54.9994 q12,0 16,-7.4003 q4,-7.4003 4,-19.9809 q0,-11.8405 -4,-19.7293 q-4,-7.8888 -16,-7.8888 Z M86,0 v746.4445 l51.9994,6.7777 l3,-7.9811 v-745.241 h-54.9994 Z M42.1111,54.9994 h110.8887 v-54.9994 h-134.2217 l-3,6 l26.333,48.9994 Z M697.7777,97 q0,31.778 -17.1921,57.7748 q-17.1921,25.9969 -46.8336,41.1113 q-29.6415,15.1145 -66.975,15.1145 h-135.3329 v11 l5.3333,43.9994 h129.9996 q51,0 93.5,-22 q42.5,-22 67.5,-60 q25,-38 25,-87 h-54.9994 Z M354.8888,0 v54.9994 h251 q25,0 49.5,-1.5 q24.5,-1.5 40.5,-3.5 q16,-2 16,-2 v-47.9994 h-357 Z M706.7777,0 q-2,13 -5.5,36 q-3.5,23 -3.5,61 h54.9994 q0,-33 3,-52 q3,-19 5,-31 l-15,-14 h-38.9994 Z M354.8888,54.9994 h110.8887 v-54.9994 h-134.2217 l-3,6 l26.333,48.9994 Z M433.4442,266 h110.8887 v-54.9994 h-134.2217 l-3,6 l26.333,48.9994 Z M122.9998,0 v54.9994 h381 v-54.9994 h-381 Z M122.9998,211.0006 v54.9994 h381 v-54.9994 h-381 Z M0,0 v54.9994 h83.3334 v-54.9994 h-83.3334 Z M0,0 q-10.5555,0 -15.2778,8.3333 q-4.7222,8.3333 -4.7222,19.5924 q0,11.9628 4.7222,19.5183 q4.7222,7.5555 15.2778,7.5555 v-54.9994 Z" fill="#FFFFFF" transform="matrix(1,0,0,-1,1404,1704)"/>
  <path d="M513.5536,0 v54.9994 h94 v-54.9994 h-94 Z M607.5536,0 v54.9994 q12,0 16,-7.3333 q4,-7.3333 4,-19.8887 q0,-11.9999 -4,-19.8887 q-4,-7.8888 -16,-7.8888 Z M0,0 v54.9994 h489.5542 v-54.9994 h-489.5542 Z M98.5557,0 l0.7777,32.2219 q-1.7778,14.2227 -5.0001,49.1116 q-3.2222,34.889 -5.7778,79.5555 q-2.5555,44.6666 -2.5555,87.7775 v11.5557 l51.9994,6.7777 l3,-8 v-20.3331 q0,-32.3333 2.0555,-67.222 q2.0555,-34.8888 4.3333,-66.9999 q2.2778,-32.1111 4.7778,-55.9445 q2.5,-23.8334 3.8334,-34.5004 l-15,-14 h-42.4437 Z M290.3328,0 l0.7777,32.2219 q-1.3334,14.2227 -4.5556,49.3894 q-3.2222,35.1667 -6,81.4999 q-2.7778,46.3332 -2.7778,93.8885 v51.2225 l51.9994,6.7777 l3,-8 v-60 q0,-35.6665 2.0555,-72.2219 q2.0555,-36.5554 4.3333,-69.4998 q2.2778,-32.9444 4.7778,-56.7778 q2.5,-23.8334 3.8334,-34.5004 l-15,-14 h-42.4437 Z M482.1099,0 l0.7777,32.2219 q-1.3334,14.2227 -4.5556,49.3894 q-3.2222,35.1667 -6,81.4999 q-2.7778,46.3332 -2.7778,93.8885 v98.2225 l51.9994,6.7777 l3,-8 v-107 q0,-35.6665 2.0555,-72.2219 q2.0555,-36.5554 4.3333,-69.4998 q2.2778,-32.9444 4.7778,-56.7778 q2.5,-23.8334 3.8334,-34.5004 l-15,-14 h-42.4437 Z M0,0 q-10.5555,0 -15.2778,8.3333 q-4.7222,8.3333 -4.7222,19.4442 q0,12.111 4.7222,19.6664 q4.7222,7.5555 15.2778,7.5555 v-54.9994 Z" fill="#FFFFFF" transform="matrix(1,0,0,-1,2218,1704)"/>
  <path d="M37.9082,428 q-15.6861,0 -26.7972,11.0718 q-11.111,11.0718 -11.111,26.8887 q0,15.8169 11.0718,26.7057 q11.0718,10.8888 26.8887,10.8888 q15.8169,0 26.7057,-10.9803 q10.8888,-10.9803 10.8888,-26.6664 q0,-15.6862 -10.9803,-26.7972 q-10.9803,-11.111 -26.6664,-11.111 Z" fill="#FFFFFF" transform="matrix(1,0,0,-1,3012,1674)"/>
  <path d="M0,0 v54.9994 h263.3334 q25,0 49.5,-1.5 q24.5,-1.5 40.5,-3.5 q16,-2 16,-2 l-15.9999,0.4445 q-0.4445,8.4446 -0.6667,17.5558 q-0.2222,9.1113 -0.2222,18.0003 q-1,115.7781 -35.7224,178.8893 q-34.7224,63.1113 -93.6114,63.1113 q-30.1112,0 -57.8336,-16.7223 q-27.7224,-16.7223 -44.8336,-47.9446 q-17.1112,-31.2224 -17.1112,-74.8892 q0,-61.3336 38.5002,-96.3893 q38.5002,-35.0557 111.5004,-35.0557 v-42.2218 q-75,0 -120,25.8889 q-45,25.8889 -65,67.0001 q-20,41.1111 -20,85.1111 q0,56.3334 24.5,98.7778 q24.5,42.4445 65.0555,66.9445 q40.5555,24.5 86.7777,24.5 q59.7777,0 100.4443,-39 q40.6666,-39 61.4999,-106 q20.8333,-67 20.8333,-152 q0,-18.1111 1,-37.8889 q1,-19.7778 2,-34.3333 l-10.5557,-11.7778 h-399.8883 Z M0,0 q-10.5555,0 -15.2778,8.3333 q-4.7222,8.3333 -4.7222,19.4442 q0,12.111 4.7222,19.6664 q4.7222,7.5555 15.2778,7.5555 v-54.9994 Z" fill="#FFFFFF" transform="matrix(1,0,0,-1,2826,1704)"/>
  <path d="" fill="#FFFFFF" transform="matrix(1,0,0,-1,3294,1704)"/>
  <path d="M736.7771,0 v54.9994 h103.4441 v-54.9994 h-103.4441 Z M840.2212,0 v54.9994 q12,0 16,-7.4003 q4,-7.4003 4,-19.9809 q0,-11.8405 -4,-19.7293 q-4,-7.8888 -16,-7.8888 Z M112.4442,0 v746.4445 l51.9994,6.7777 l3,-7.9811 v-745.241 h-54.9994 Z M68.5553,54.9994 h110.8887 v-54.9994 h-134.2217 l-3,6 l26.333,48.9994 Z M724.2219,97 q0,31.778 -17.1921,57.7748 q-17.1921,25.9969 -46.8336,41.1113 q-29.6415,15.1145 -66.975,15.1145 h-135.3329 v11 l5.3333,43.9994 h129.9996 q51,0 93.5,-22 q42.5,-22 67.5,-60 q25,-38 25,-87 h-54.9994 Z M381.333,0 v54.9994 h251 q25,0 49.5,-1.5 q24.5,-1.5 40.5,-3.5 q16,-2 16,-2 v-47.9994 h-357 Z M733.2219,0 q-2,13 -5.5,36 q-3.5,23 -3.5,61 h54.9994 q0,-33 3,-52 q3,-19 5,-31 l-15,-14 h-38.9994 Z M381.333,54.9994 h110.8887 v-54.9994 h-134.2217 l-3,6 l26.333,48.9994 Z M459.8884,266 h110.8887 v-54.9994 h-134.2217 l-3,6 l26.333,48.9994 Z M149.444,0 v54.9994 h381 v-54.9994 h-381 Z M149.444,211.0006 v54.9994 h381 v-54.9994 h-381 Z" fill="#FFFFFF" transform="matrix(1,0,0,-1,3523,1704)"/>
  <path d="M37.9082,428 q-15.6861,0 -26.7972,11.0718 q-11.111,11.0718 -11.111,26.8887 q0,15.8169 11.0718,26.7057 q11.0718,10.8888 26.8887,10.8888 q15.8169,0 26.7057,-10.9803 q10.8888,-10.9803 10.8888,-26.6664 q0,-15.6862 -10.9803,-26.7972 q-10.9803,-11.111 -26.6664,-11.111 Z" fill="#FFFFFF" transform="matrix(1,0,0,-1,4491,1667)"/>
  <path d="M512.7775,4 q-66.5557,19.6667 -132.2224,53.8891 q-65.6667,34.2224 -125.3889,78.8336 q-59.7222,44.6112 -110.722,94.3334 q-50.9999,49.7222 -88.7775,99.8332 l38.9995,31.1107 h7 q32,-41.6667 79.5,-89.5557 q47.5,-47.889 107.2222,-93.0002 q59.7222,-45.1112 128,-79.8335 q68.2778,-34.7223 141.2778,-50.6112 l-44.8888,-44.9994 Z M0,0 v54.9994 h255.6663 q37.4448,0 73.5007,-1.5 q36.0559,-1.5 59.8339,-3.5 q23.778,-2 23.778,-2 l67.3325,7 h97.3324 v-7 l-14.7776,-47.9994 h-562.6663 Z M0,0 q-10.5555,0 -15.2778,8.3333 q-4.7222,8.3333 -4.7222,19.4442 q0,12.111 4.7222,19.6664 q4.7222,7.5555 15.2778,7.5555 v-54.9994 Z" fill="#FFFFFF" transform="matrix(1,0,0,-1,4363,1704)"/>
  <path d="M103,0 v747 l27,4 l3,-7.9576 v-743.0424 h-30 Z M58,30 h102 v-30 h-112 l-3,6 l13,24 Z M712,97 q0,39 -20.5569,70.6176 q-20.5569,31.6176 -56,50 q-35.4431,18.3824 -79.4431,18.3824 h-117 v11 l2,19 h115 q51,0 93.5,-22 q42.5,-22 67.5,-60 q25,-38 25,-87 h-30 Z M368,0 v30 h251 q25,0 49.5,-1.5 q24.5,-1.5 40.5,-3.5 q16,-2 16,-2 v-23 h-357 Z M721,0 q-2,13 -5.5,36 q-3.5,23 -3.5,61 h30 q0,-33 3,-52 q3,-19 5,-31 l-15,-14 h-14 Z M368,30 h102 v-30 h-112 l-3,6 l13,24 Z M441,266 h102 v-30 h-112 l-3,6 l13,24 Z M130,0 v30 h381 v-30 h-381 Z M130,236 v30 h381 v-30 h-381 Z" fill="#FFFFFF" transform="matrix(1,0,0,-1,464.5,851)"/>
  <path d="M110,0 l-30,1 v746 l27,4 l3,-7.9576 v-743.0424 Z M80,0 v30 h116 v-30 h-116 Z M196,0 v30 q12,0 16,-4.1509 q4,-4.1509 4,-11.2075 q0,-6.6415 -4,-10.6415 q-4,-4 -16,-4 Z" fill="#FFFFFF" transform="matrix(1,0,0,-1,1274.5,851)"/>
  <path d="M696,0 v30 h85 v-30 h-85 Z M781,0 v30 q12,0 16,-4.1509 q4,-4.1509 4,-11.2075 q0,-6.6415 -4,-10.6415 q-4,-4 -16,-4 Z M86,0 v747 l27,4 l3,-7.9576 v-743.0424 h-30 Z M41,30 h102 v-30 h-112 l-3,6 l13,24 Z M695,97 q0,39 -20.557,70.6176 q-20.5569,31.6176 -56,50 q-35.443,18.3824 -79.443,18.3824 h-117 v11 l2,19 h115 q51,0 93.5,-22 q42.5,-22 67.5,-60 q25,-38 25,-87 h-30 Z M351,0 v30 h251 q25,0 49.5,-1.5 q24.5,-1.5 40.5,-3.5 q16,-2 16,-2 v-23 h-357 Z M704,0 q-2,13 -5.5,36 q-3.5,23 -3.5,61 h30 q0,-33 3,-52 q3,-19 5,-31 l-15,-14 h-14 Z M351,30 h102 v-30 h-112 l-3,6 l13,24 Z M424,266 h102 v-30 h-112 l-3,6 l13,24 Z M113,0 v30 h381 v-30 h-381 Z M113,236 v30 h381 v-30 h-381 Z M0,0 v30 h85 v-30 h-85 Z M0,0 q-10,0 -15,5 q-5,5 -5,10.3333 q0,5.6667 5,10.1667 q5,4.5 15,4.5 v-30 Z" fill="#FFFFFF" transform="matrix(1,0,0,-1,1470.5,851)"/>
  <path d="M433,0 v30 h94 v-30 h-94 Z M527,0 v30 q12,0 16,-4 q4,-4 4,-11 q0,-7 -4,-11 q-4,-4 -16,-4 Z M0,0 v30 h434 v-30 h-434 Z M103,0 l-2,20 q-4,32 -7.5,70.5 q-3.5,38.5 -5.5,79 q-2,40.5 -2,77.5 v16 l27,4 l3,-8 v-12 q0,-29 1.5,-60 q1.5,-31 3.5,-62 q2,-31 4.5,-59 q2.5,-28 5.5,-52 l-15,-14 h-13 Z M267,0 l-2,20 q-3,32 -6.5,70.5 q-3.5,38.5 -6,79 q-2.5,40.5 -2.5,77.5 v64 l27,4 l3,-8 v-60 q0,-29 1.5,-60 q1.5,-31 3.5,-62 q2,-31 4.5,-59 q2.5,-28 5.5,-52 l-15,-14 h-13 Z M431,0 l-2,20 q-3,32 -6.5,70.5 q-3.5,38.5 -6,79 q-2.5,40.5 -2.5,77.5 v111 l27,4 l3,-8 v-107 q0,-29 1.5,-60 q1.5,-31 3.5,-62 q2,-31 4.5,-59 q2.5,-28 5.5,-52 l-15,-14 h-13 Z M0,0 q-10,0 -15,5 q-5,5 -5,10 q0,6 5,10.5 q5,4.5 15,4.5 v-30 Z" fill="#FFFFFF" transform="matrix(1,0,0,-1,2251.5,851)"/>
  <path d="M25.2941,428 q-10.2941,0 -17.7941,7.4117 q-7.5,7.4118 -7.5,18.0 q0,10.5882 7.4118,17.5882 q7.4118,7 18.0,7 q10.5882,0 17.5882,-7.2059 q7,-7.2059 7,-17.5 q0,-10.2941 -7.2059,-17.7941 q-7.2059,-7.5 -17.5,-7.5 Z" fill="#FFFFFF" transform="matrix(1,0,0,-1,2964.5,821)"/>
  <path d="M0,0 v30 h265 q25,0 49.5,-1.5 q24.5,-1.5 40.5,-3.5 q16,-2 16,-2 l-11,1 q-1,14 -1.5,29.5 q-0.5,15.5 -0.5,30.5 q-1,128 -41,197.5 q-40,69.5 -105,69.5 q-34,0 -67,-19.5 q-33,-19.5 -54,-56 q-21,-36.5 -21,-88.5 q0,-73 46,-115 q46,-42 129,-42 v-25 q-75,0 -120,27 q-45,27 -65,69.5 q-20,42.5 -20,86.5 q0,58 24.5,101 q24.5,43 64.5,67.5 q40,24.5 84,24.5 q57,0 96,-39 q39,-39 59,-106 q20,-67 20,-152 q0,-17 1,-36.5 q1,-19.5 2,-33.5 l-15,-14 h-376 Z M0,0 q-10,0 -15,5 q-5,5 -5,10 q0,6 5,10.5 q5,4.5 15,4.5 v-30 Z" fill="#FFFFFF" transform="matrix(1,0,0,-1,2778.5,851)"/>
  <path d="" fill="#FFFFFF" transform="matrix(1,0,0,-1,3229.5,851)"/>
  <path d="M709,0 v30 h89 v-30 h-89 Z M798,0 v30 q12,0 16,-4.1509 q4,-4.1509 4,-11.2075 q0,-6.6415 -4,-10.6415 q-4,-4 -16,-4 Z M103,0 v747 l27,4 l3,-7.9576 v-743.0424 h-30 Z M58,30 h102 v-30 h-112 l-3,6 l13,24 Z M712,97 q0,39 -20.5569,70.6176 q-20.5569,31.6176 -56,50 q-35.4431,18.3824 -79.4431,18.3824 h-117 v11 l2,19 h115 q51,0 93.5,-22 q42.5,-22 67.5,-60 q25,-38 25,-87 h-30 Z M368,0 v30 h251 q25,0 49.5,-1.5 q24.5,-1.5 40.5,-3.5 q16,-2 16,-2 v-23 h-357 Z M721,0 q-2,13 -5.5,36 q-3.5,23 -3.5,61 h30 q0,-33 3,-52 q3,-19 5,-31 l-15,-14 h-14 Z M368,30 h102 v-30 h-112 l-3,6 l13,24 Z M441,266 h102 v-30 h-112 l-3,6 l13,24 Z M130,0 v30 h381 v-30 h-381 Z M130,236 v30 h381 v-30 h-381 Z" fill="#FFFFFF" transform="matrix(1,0,0,-1,3469.5,851)"/>
  <path d="M25.2941,428 q-10.2941,0 -17.7941,7.4117 q-7.5,7.4118 -7.5,18.0 q0,10.5882 7.4118,17.5882 q7.4118,7 18.0,7 q10.5882,0 17.5882,-7.2059 q7,-7.2059 7,-17.5 q0,-10.2941 -7.2059,-17.7941 q-7.2059,-7.5 -17.5,-7.5 Z" fill="#FFFFFF" transform="matrix(1,0,0,-1,4391.5,814)"/>
  <path d="M500,4 q-71,23 -137.5,62.5 q-66.5,39.5 -124,88 q-57.5,48.5 -103.5,98.5 q-46,50 -76,94 l19,15 h7 q32,-45 79.5,-96.5 q47.5,-51.5 107.5,-100.5 q60,-49 128,-86.5 q68,-37.5 141,-54.5 l-41,-20 Z M0,0 v30 h239 q53,0 103.5,-1.5 q50.5,-1.5 84,-3.5 q33.5,-2 33.5,-2 l34,7 h59 v-7 l-7,-23 h-546 Z M0,0 q-10,0 -15,5 q-5,5 -5,10 q0,6 5,10.5 q5,4.5 15,4.5 v-30 Z" fill="#FFFFFF" transform="matrix(1,0,0,-1,4267.5,851)"/>
</svg>
